<svg xmlns="http://www.w3.org/2000/svg" width="1024" height="1536" viewBox="0 0 1024 1536" version="1.1"><path d="M 579.292 266.742 C 583.027 266.935, 588.877 266.934, 592.292 266.739 C 595.706 266.545, 592.650 266.387, 585.500 266.389 C 578.350 266.390, 575.556 266.550, 579.292 266.742 M 581.287 271.740 C 584.469 271.939, 589.419 271.937, 592.287 271.736 C 595.154 271.535, 592.550 271.372, 586.500 271.374 C 580.450 271.376, 578.104 271.541, 581.287 271.740 M 680.500 306 C 685.427 310.950, 689.683 315, 689.958 315 C 690.233 315, 686.427 310.950, 681.500 306 C 676.573 301.050, 672.317 297, 672.042 297 C 671.767 297, 675.573 301.050, 680.500 306 M 678.750 327.723 C 680.538 327.945, 683.462 327.945, 685.250 327.723 C 687.038 327.502, 685.575 327.320, 682 327.320 C 678.425 327.320, 676.962 327.502, 678.750 327.723 M 717.310 373.500 C 717.315 376.800, 717.502 378.029, 717.725 376.232 C 717.947 374.435, 717.943 371.735, 717.715 370.232 C 717.486 368.729, 717.304 370.200, 717.310 373.500 M 405.310 379.500 C 405.315 382.800, 405.502 384.029, 405.725 382.232 C 405.947 380.435, 405.943 377.735, 405.715 376.232 C 405.486 374.729, 405.304 376.200, 405.310 379.500 M 508.320 384 C 508.320 387.575, 508.502 389.038, 508.723 387.250 C 508.945 385.462, 508.945 382.538, 508.723 380.750 C 508.502 378.962, 508.320 380.425, 508.320 384 M 514.349 394 C 514.349 398.675, 514.522 400.587, 514.732 398.250 C 514.943 395.913, 514.943 392.087, 514.732 389.750 C 514.522 387.413, 514.349 389.325, 514.349 394 M 508.310 396.500 C 508.315 399.800, 508.502 401.029, 508.725 399.232 C 508.947 397.435, 508.943 394.735, 508.715 393.232 C 508.486 391.729, 508.304 393.200, 508.310 396.500 M 584.966 432.750 L 579.500 438.500 585.250 433.034 C 588.413 430.028, 591 427.440, 591 427.284 C 591 426.542, 590.044 427.408, 584.966 432.750 M 484.250 479.728 C 486.313 479.944, 489.688 479.944, 491.750 479.728 C 493.813 479.513, 492.125 479.336, 488 479.336 C 483.875 479.336, 482.188 479.513, 484.250 479.728 M 269.244 629.250 C 270.139 629.938, 271.687 631.410, 272.685 632.521 C 273.683 633.633, 274.163 634.105, 273.750 633.571 C 272.663 632.163, 272.830 630.777, 274 631.500 C 274.550 631.840, 275 631.878, 275 631.585 C 275 630.977, 269.484 628, 268.359 628 C 267.951 628, 268.350 628.563, 269.244 629.250 M 507 635.788 C 505.075 637.739, 504.372 638.698, 505.437 637.918 C 507.207 636.622, 507.310 636.673, 506.628 638.500 C 506.135 639.820, 506.217 640.160, 506.869 639.500 C 507.413 638.950, 508.002 637.827, 508.179 637.004 C 508.355 636.181, 509.174 634.980, 509.998 634.335 C 510.823 633.691, 511.273 632.956, 510.998 632.701 C 510.724 632.447, 508.925 633.836, 507 635.788 M 476.378 712 C 476.378 718.325, 476.541 720.913, 476.739 717.750 C 476.937 714.587, 476.937 709.413, 476.739 706.250 C 476.541 703.087, 476.378 705.675, 476.378 712 M 476.378 746 C 476.378 752.325, 476.541 754.913, 476.739 751.750 C 476.937 748.587, 476.937 743.413, 476.739 740.250 C 476.541 737.087, 476.378 739.675, 476.378 746 M 470.310 756.500 C 470.315 759.800, 470.502 761.029, 470.725 759.232 C 470.947 757.435, 470.943 754.735, 470.715 753.232 C 470.486 751.729, 470.304 753.200, 470.310 756.500 M 563.982 797.750 L 553.500 808.500 564.250 798.018 C 574.235 788.282, 575.454 787, 574.732 787 C 574.585 787, 569.747 791.837, 563.982 797.750 M 538.980 801.750 L 529.500 811.500 539.250 802.020 C 548.306 793.215, 549.455 792, 548.730 792 C 548.582 792, 544.194 796.388, 538.980 801.750 M 574.469 851.250 L 568.500 857.500 574.750 851.531 C 578.188 848.249, 581 845.436, 581 845.281 C 581 844.542, 580.013 845.444, 574.469 851.250 M 403.462 892.795 C 406.192 895.658, 408.592 898, 408.796 898 C 409.793 898, 408.045 896.022, 403.500 892.006 L 398.500 887.589 403.462 892.795 M 468.262 942.707 C 468.348 945.021, 468.099 947.234, 467.709 947.624 C 467.319 948.014, 467.032 949.496, 467.070 950.917 C 467.132 953.163, 467.324 953.002, 468.541 949.684 C 469.548 946.940, 469.683 944.832, 469.023 942.184 L 468.105 938.500 468.262 942.707 M 445.349 1112 C 445.349 1116.675, 445.522 1118.588, 445.732 1116.250 C 445.943 1113.912, 445.943 1110.088, 445.732 1107.750 C 445.522 1105.412, 445.349 1107.325, 445.349 1112 M 450.432 1142 C 450.432 1155.475, 450.574 1160.987, 450.747 1154.250 C 450.920 1147.513, 450.920 1136.487, 450.747 1129.750 C 450.574 1123.013, 450.432 1128.525, 450.432 1142 M 431.310 1157.500 C 431.315 1160.800, 431.502 1162.029, 431.725 1160.232 C 431.947 1158.435, 431.943 1155.735, 431.715 1154.232 C 431.486 1152.729, 431.304 1154.200, 431.310 1157.500 M 445.336 1167 C 445.336 1171.125, 445.513 1172.813, 445.728 1170.750 C 445.944 1168.688, 445.944 1165.313, 445.728 1163.250 C 445.513 1161.188, 445.336 1162.875, 445.336 1167 M 425.392 1177 C 425.392 1184.425, 425.549 1187.463, 425.742 1183.750 C 425.934 1180.037, 425.934 1173.963, 425.742 1170.250 C 425.549 1166.537, 425.392 1169.575, 425.392 1177 M 431.310 1198.500 C 431.315 1201.800, 431.502 1203.029, 431.725 1201.232 C 431.947 1199.435, 431.943 1196.735, 431.715 1195.232 C 431.486 1193.729, 431.304 1195.200, 431.310 1198.500" stroke="none" fill="#a35864" fill-rule="evenodd"/><path d="M 565.500 267.689 C 533.358 271.859, 491.522 287.876, 459.507 308.266 C 445.810 316.990, 438.592 322.504, 429 331.571 L 421.500 338.661 413.500 337.918 C 397.444 336.426, 376.925 340.257, 365.500 346.879 C 349.306 356.266, 339.484 372.207, 338.316 391 C 336.756 416.076, 350.522 435.382, 377.241 445.592 C 384.756 448.464, 385.895 449.732, 394.225 464.500 C 404.242 482.262, 411.612 506.266, 419.554 547 C 428.398 592.364, 434.789 610.303, 449.329 630.564 C 464.255 651.365, 469.736 672.357, 470.854 713 C 472.124 759.200, 467.859 817.273, 457.488 895 C 456.111 905.318, 451.391 943.190, 447.456 975.500 C 446.652 982.100, 445.407 990.875, 444.689 995 L 443.383 1002.500 442.681 996 C 440.720 977.840, 434.076 952.229, 424.652 926.500 C 423.847 924.300, 422.008 909.900, 420.566 894.500 C 415.115 836.261, 411.986 816.463, 403.265 785.020 C 386.711 725.340, 350.377 675.931, 296.988 640.500 C 284.800 632.411, 262.093 620.149, 256.250 618.500 C 252.590 617.467, 253.655 619.666, 258.394 622.927 C 262.251 625.580, 273 637.713, 273 639.412 C 273 639.757, 274.164 641.883, 275.586 644.136 C 290.034 667.023, 300.301 701.103, 311.954 764.852 C 315.756 785.651, 319.880 801.087, 324.952 813.505 C 335.264 838.753, 346.292 851.364, 383.975 881 C 394.654 889.399, 407.509 903.066, 412.189 910.997 C 419.767 923.839, 424.168 951.981, 433.146 1045 C 434.290 1056.851, 433.901 1067.594, 431.645 1086.500 C 427.002 1125.405, 424.762 1185.581, 427.085 1209 C 428.397 1222.231, 431.399 1237.394, 434.113 1244.500 C 436.993 1252.040, 437.696 1249.601, 435.638 1239.206 C 431.864 1220.146, 431.500 1214.661, 431.536 1177.500 C 431.574 1138.922, 432.971 1115.123, 437.084 1083 C 438.175 1074.475, 439.294 1065.700, 439.570 1063.500 C 440.238 1058.180, 444.294 1030.777, 448.525 1003 C 450.411 990.625, 452.401 976.675, 452.948 972 C 454.866 955.604, 455.890 947.368, 457.924 932 C 461.226 907.046, 462.791 894.839, 463.373 889.500 C 463.672 886.750, 465.496 871, 467.426 854.500 C 470.623 827.172, 473.785 793.288, 475.536 767.582 C 476.560 752.550, 476.245 699.787, 475.065 688.793 C 473.856 677.527, 470.987 664.059, 467.973 655.500 C 465.141 647.460, 464.822 645.774, 466.302 646.679 C 466.961 647.082, 469.470 648.912, 471.878 650.745 C 474.285 652.578, 476.495 653.839, 476.787 653.546 C 477.239 653.094, 469.036 643.835, 463.902 639.004 C 456.783 632.304, 446.030 616.505, 440.487 604.604 C 434.138 590.970, 430.458 577.884, 424.515 547.805 C 418.922 519.494, 413.217 497.633, 407.984 484.461 C 404.173 474.865, 396.556 459.689, 392.822 454.250 C 391.217 451.913, 390.200 450, 390.562 450 C 393.099 450, 416.149 458.015, 423.500 461.453 C 434.076 466.400, 446.139 475.674, 452.501 483.751 C 457.637 490.270, 464.486 503.145, 468.326 513.500 C 476.123 534.520, 483.971 573.760, 487.927 611.500 C 488.504 617, 489.430 625.550, 489.985 630.500 C 490.540 635.450, 490.996 642.538, 490.997 646.250 C 491 653.460, 492.017 654.788, 493.953 650.113 C 494.934 647.746, 500.951 641.227, 509.583 633.179 C 511.719 631.187, 511.391 631.973, 506.517 640.526 C 496.083 658.835, 491.699 680.769, 486.035 743 C 479.202 818.091, 474.519 861.375, 469.429 896.500 C 469.190 898.150, 466.538 919.075, 463.537 943 C 460.536 966.925, 457.181 993.475, 456.083 1002 C 450.278 1047.047, 446.296 1092.993, 445.443 1124.773 C 444.722 1151.649, 446.036 1181.192, 448.545 1194.500 C 449.375 1198.900, 450.481 1204.942, 451.003 1207.926 C 451.894 1213.016, 453.356 1215.977, 454.443 1214.890 C 454.705 1214.628, 454.484 1210.383, 453.951 1205.457 C 447.839 1148.957, 448.812 1107.091, 458.062 1028.500 C 463.284 984.137, 465.960 971.056, 473.890 951.119 C 481.371 932.314, 489.201 921.021, 503.975 907.732 C 511.228 901.208, 516.148 897.418, 534.131 884.500 C 568.034 860.148, 586.125 841.556, 610.517 806 C 626.380 782.876, 635.519 771.262, 646.390 760.411 C 658.157 748.667, 664.092 743.937, 676.554 736.371 C 683.815 731.963, 701.380 725, 705.240 725 C 706.208 725, 707 724.550, 707 724 C 707 722.386, 700.310 722.834, 685.433 725.446 C 644.694 732.598, 614.932 743.242, 584.553 761.524 C 545.499 785.026, 519.359 811.771, 501.500 846.500 C 491.412 866.117, 486.407 880.494, 477.475 915.500 C 470.937 941.123, 467.865 952.468, 467.324 952.980 C 466.617 953.648, 467.182 949.019, 474.033 898 C 475.695 885.625, 477.277 873.700, 477.548 871.500 C 477.819 869.300, 478.247 865.925, 478.500 864 C 478.753 862.075, 479.194 858.587, 479.480 856.250 C 479.766 853.913, 480.223 850.313, 480.495 848.250 C 481.474 840.825, 485.096 806.076, 487.035 785.500 C 492.599 726.463, 496.694 693.611, 500.622 676.500 C 505.592 654.856, 509.668 645.676, 521.051 630.500 C 538.576 607.133, 544.837 595.874, 552.372 574.177 C 556.267 562.961, 564.265 536.370, 567.014 525.500 C 576.674 487.294, 589.771 447.374, 598.092 430.773 C 604.457 418.076, 625.430 385.734, 636.687 371.258 C 657.426 344.588, 677.396 334.537, 696.697 341.055 C 709.196 345.276, 717.888 358.624, 717.976 373.729 C 718.009 379.600, 714.368 390.098, 710.792 394.436 C 709.149 396.430, 705.710 399.152, 703.152 400.484 C 698.964 402.665, 698.770 402.912, 701.212 402.953 C 706.495 403.044, 714.648 399.080, 720.216 393.715 C 727.862 386.347, 731.256 378.950, 731.807 368.460 C 732.190 361.163, 731.939 359.547, 729.650 354.547 C 725.718 345.958, 719.052 338.792, 711.222 334.737 C 707.525 332.823, 703.375 330.990, 702 330.664 C 700.328 330.268, 698.675 328.507, 697.011 325.347 C 695.642 322.748, 689.647 315.552, 683.689 309.354 C 655.039 279.552, 624.380 266.717, 582.872 267.150 C 574.967 267.232, 567.150 267.475, 565.500 267.689 M 572.500 271.606 C 530.446 275.835, 482.380 295.280, 445.541 322.969 C 429.802 334.799, 419.088 347.780, 413.361 361.958 C 410.082 370.076, 408.379 383.475, 409.872 389.405 C 411.616 396.330, 411.209 396.962, 408.522 391.500 C 402.941 380.154, 406.672 359.476, 416.665 346.373 L 419.050 343.246 416.775 342.637 C 409.843 340.780, 389.356 343.107, 378.172 347.023 C 375.052 348.115, 369.430 351.102, 365.678 353.660 C 339.891 371.241, 335.804 403.473, 356.525 425.853 C 364.131 434.069, 376.082 439.922, 400.500 447.390 C 410.400 450.418, 423.316 455.169, 429.202 457.948 C 435.089 460.727, 440.367 463, 440.933 463 C 442.787 463, 436.934 453.903, 424.893 438.072 C 418.379 429.507, 411.662 420.813, 409.968 418.750 C 408.273 416.687, 407.286 415, 407.775 415 C 409.132 415, 424.903 432.306, 433.918 443.688 C 437.996 448.837, 440.512 450.215, 438.478 446.187 C 436.296 441.862, 434.317 436.918, 432.201 430.500 C 431.113 427.200, 429.032 421.369, 427.578 417.542 C 426.123 413.716, 425.065 409.899, 425.227 409.061 C 425.581 407.221, 439.725 439.171, 443.681 450.750 C 445.232 455.287, 446.902 458.999, 447.392 459 C 448.800 459, 447.342 448.580, 444.103 435.500 C 434.531 396.833, 432.393 384.956, 438.164 402.500 C 444.981 423.224, 453 449.556, 453 451.216 C 453 452.255, 453.731 452.993, 454.750 452.983 C 456.797 452.964, 472.852 446.585, 473.976 445.345 C 474.398 444.880, 477.098 433.925, 479.976 421 C 488.320 383.540, 491.650 373.997, 498.341 368.366 C 500.619 366.450, 502.193 365.966, 505.387 366.199 C 509.190 366.477, 509.677 366.856, 511.845 371.226 C 513.981 375.532, 514.181 377.182, 514.096 389.744 C 514.044 397.511, 513.145 409.624, 512.040 417.472 C 510.960 425.138, 510.173 431.507, 510.293 431.626 C 510.615 431.948, 530.726 421.898, 536.500 418.529 C 550.857 410.154, 571.252 395.084, 594 376.042 C 607.263 364.940, 625.468 350.688, 632 346.293 C 640.242 340.748, 653.402 334.205, 662 331.379 C 669.446 328.931, 672.066 328.579, 683.133 328.542 L 695.765 328.500 690.633 322.558 C 682.676 313.346, 667.917 299.336, 660.351 293.813 C 647.431 284.382, 628.610 276.570, 611.217 273.420 C 602.633 271.865, 580.319 270.820, 572.500 271.606 M 670.486 333.468 C 662.049 335.306, 650.784 339.854, 642.131 344.916 C 633.505 349.962, 614.887 363.825, 603.495 373.683 C 568.809 403.698, 537.111 425.823, 516.839 434.167 C 512.803 435.828, 502.525 440.022, 494 443.487 C 456.909 458.560, 443.392 464.792, 444.779 466.179 C 445.205 466.605, 450.716 468.339, 457.027 470.034 C 472.161 474.097, 492.468 475.139, 507.287 472.613 C 531.309 468.518, 556.491 456.968, 576.513 440.861 C 587.501 432.021, 596.775 420.946, 612.405 397.994 C 631.378 370.135, 633.900 366.904, 645.977 355 C 653.921 347.170, 658.343 343.656, 663.371 341.179 C 678.590 333.683, 689.435 332.704, 700.161 337.859 C 708.879 342.049, 713.112 345.841, 716.699 352.675 C 722.590 363.896, 723.421 376.598, 718.944 386.970 L 716.988 391.500 719.002 389 C 720.110 387.625, 722.476 383.584, 724.258 380.021 C 726.995 374.552, 727.499 372.447, 727.493 366.521 C 727.488 360.617, 727.010 358.629, 724.493 354.026 C 720.503 346.729, 715.337 341.703, 708.036 338.018 C 696.327 332.108, 683.740 330.582, 670.486 333.468 M 502.329 372.772 C 497.060 376.964, 492.413 389.797, 486.111 417.555 C 483.871 427.425, 481.587 437.045, 481.036 438.934 C 480.485 440.822, 480.139 442.467, 480.267 442.588 C 480.395 442.709, 485.450 440.834, 491.500 438.421 C 497.550 436.008, 502.578 434.026, 502.672 434.017 C 503.236 433.962, 505.152 426.197, 506.626 418 C 508.852 405.613, 509.189 375.146, 507.128 372.657 C 505.430 370.607, 505.037 370.617, 502.329 372.772 M 586.106 441.529 C 582.137 447.356, 573.680 468.157, 565.472 492.278 C 561.209 504.805, 557.536 514.870, 557.310 514.643 C 555.697 513.031, 571.987 461.046, 577.635 449.783 C 580.457 444.156, 580.588 443.265, 578.250 445.619 C 574.918 448.972, 558.457 459.144, 548.500 464.003 C 536.932 469.647, 524.093 474.104, 512 476.676 C 499.081 479.423, 473.481 479.191, 461.671 476.221 C 456.815 474.999, 452.680 474, 452.482 474 C 452.284 474, 454.144 477.038, 456.615 480.750 C 472.620 504.798, 482.303 536.483, 488.996 586.711 C 491.507 605.551, 493.973 630.762, 493.988 637.750 C 493.995 640.638, 494.153 643, 494.340 643 C 494.687 643, 501.021 636.972, 515.796 622.581 C 532.371 606.437, 542.663 587.348, 553.314 553 C 561.578 526.348, 564.809 515.574, 567.557 505.500 C 571.620 490.607, 583.590 453.216, 586.893 445.099 C 590.062 437.312, 589.797 436.110, 586.106 441.529 M 423.384 516.528 C 423.719 517.643, 424.689 521.243, 425.539 524.528 C 441.689 586.958, 449.731 610.419, 460.326 626 C 463.695 630.956, 474.865 643, 476.091 643 C 476.516 643, 473.843 638.976, 470.150 634.058 C 458.036 617.927, 451.629 602.650, 437.981 557.352 C 429.550 529.372, 425.411 517.196, 423.753 515.500 C 423.112 514.844, 422.985 515.198, 423.384 516.528 M 271.421 631.484 C 275.596 636.042, 284.521 651.176, 289.724 662.521 C 298.326 681.279, 306.651 710.480, 313.523 746 C 314.960 753.425, 317.420 766.025, 318.991 774 C 327.165 815.502, 340.367 838.066, 371.977 864.557 C 391.355 880.797, 396.792 885.653, 402.461 891.781 C 408.047 897.818, 410.293 899.240, 408.096 895.347 C 406.819 893.086, 387.860 846.302, 376.346 817 C 367.482 794.442, 356.028 766.291, 352.949 759.500 C 351.952 757.300, 348.391 749.075, 345.037 741.222 C 335.554 719.023, 320.966 690.446, 309.445 671.500 C 307.104 667.650, 305.376 664.308, 305.605 664.073 C 306.522 663.131, 316.294 677.452, 326.025 694 C 339.549 716.996, 352.741 745.954, 373.631 798.500 C 378.879 811.700, 387.206 832.400, 392.136 844.500 C 397.066 856.600, 404.300 874.490, 408.210 884.256 C 412.121 894.022, 415.428 901.897, 415.558 901.756 C 416.220 901.042, 411.900 857.174, 409.379 839 C 403.427 796.097, 394.484 766.054, 378.395 734.901 C 368.272 715.302, 347.174 687.597, 331.895 673.842 C 309.978 654.111, 305.943 651.108, 274.079 630.816 C 268.234 627.094, 267.556 627.264, 271.421 631.484 M 663.878 733.985 C 630.760 742.656, 604.198 753.711, 581.128 768.427 C 530.870 800.486, 505.381 834.592, 487.623 893.548 C 482.940 909.095, 479.894 921.227, 480.517 921.850 C 480.716 922.049, 483.892 915.977, 487.575 908.356 C 511.899 858.029, 545.778 812.488, 581.500 782.102 C 598.695 767.476, 604.317 764.248, 591 776.648 C 561.701 803.930, 546.417 821.668, 523.918 854.500 C 511.950 871.964, 489.763 911, 491.804 911 C 492.090 911, 493.713 909.503, 495.412 907.674 C 500.410 902.290, 509.483 894.956, 526 882.948 C 548.180 866.822, 559.055 857.890, 570.375 846.500 C 581.029 835.779, 592.689 822.247, 598.063 814.364 C 609.112 798.157, 631.644 769.348, 639.407 761.501 C 650.104 750.688, 662.596 740.518, 672.155 734.838 C 675.920 732.602, 679 730.598, 679 730.386 C 679 730.174, 678.888 730.035, 678.750 730.078 C 678.612 730.121, 671.920 731.879, 663.878 733.985 M 348.953 782.750 C 358.204 806.473, 388.367 870.400, 391.560 873.050 C 393.269 874.468, 393.537 872.963, 392.059 870.236 C 391.542 869.281, 388.784 863.100, 385.932 856.500 C 383.079 849.900, 375.854 834.375, 369.877 822 C 363.901 809.625, 356.196 793.563, 352.755 786.306 C 349.315 779.050, 346.196 773.087, 345.825 773.056 C 345.454 773.025, 346.862 777.388, 348.953 782.750 M 425.344 942 C 427.440 954.030, 431.202 982.404, 432.968 999.500 C 434.104 1010.500, 435.476 1023.059, 436.017 1027.409 C 436.558 1031.759, 437.057 1037.159, 437.126 1039.409 C 437.330 1046.028, 439.730 1030.475, 440.507 1017.500 C 441.194 1006.026, 439.714 994.952, 433.965 968.544 C 430.550 952.860, 423.402 930.848, 425.344 942" stroke="none" fill="#8b1c2b" fill-rule="evenodd"/></svg>