<svg xmlns="http://www.w3.org/2000/svg" width="1024" height="1536" viewBox="0 0 1024 1536" version="1.1"><path d="M 509 154.655 C 484.916 156.963, 469.110 160.676, 451.808 168.090 C 388.694 195.134, 344.864 241.960, 305.734 324.152 C 288.576 360.191, 273.533 402.145, 263.075 443.127 C 255.422 473.120, 247.944 511.244, 241.623 552.500 C 237.354 580.361, 235.825 591.165, 233.559 609.500 C 225.961 670.963, 223.656 706.071, 223.613 761 C 223.554 836.405, 229.753 903.497, 243.987 981.500 C 245.091 987.550, 246.468 995.401, 247.048 998.947 C 248.212 1006.073, 256.056 1039.071, 260.848 1057 C 268.446 1085.434, 282.408 1124.586, 295.438 1154 C 301.240 1167.099, 315.448 1195.416, 318.053 1199.075 C 319.124 1200.578, 320 1202.068, 320 1202.385 C 320 1202.702, 321.688 1205.506, 323.750 1208.615 C 325.813 1211.725, 327.950 1214.990, 328.500 1215.870 C 348.359 1247.653, 370.997 1273.585, 397 1294.334 C 410.998 1305.504, 418.848 1310.705, 436.183 1320.292 C 474.428 1341.444, 495.475 1347.748, 524.429 1346.724 C 545.715 1345.972, 554.608 1343.445, 580 1330.932 C 615.172 1313.600, 644.206 1292.812, 669.522 1266.836 C 697.087 1238.551, 716.758 1210.597, 734.497 1174.500 C 751.643 1139.610, 761.721 1111.920, 771.987 1071.500 C 779.205 1043.084, 784.312 1016.608, 788.962 983.500 C 790.121 975.250, 791.943 962.650, 793.010 955.500 C 798.866 916.279, 803.436 877.774, 806.719 840 C 809.107 812.511, 809.059 733.093, 806.630 693.500 C 800.959 601.076, 788.406 510.331, 773.637 455 C 754.976 385.081, 733.910 329.702, 711.826 292.500 C 695.716 265.362, 683.469 248.619, 666.163 230.074 C 634.366 195.999, 604.594 176.017, 566 162.844 C 554.240 158.830, 546.472 157.115, 532.500 155.449 C 520.972 154.074, 516.608 153.926, 509 154.655 M 508.500 156.652 C 486.940 158.357, 471.818 161.889, 453.356 169.531 C 420.893 182.970, 395.036 201.478, 368.179 230.500 C 332.366 269.201, 297.400 337.605, 273.870 415 C 254.081 480.088, 236.063 585.640, 228.462 681 C 225.969 712.275, 225.380 793.330, 227.410 825.876 C 232.562 908.487, 247.434 1002.050, 265.063 1062.748 C 273.069 1090.313, 290.613 1139.794, 294.050 1144.500 C 294.452 1145.050, 296.406 1149.445, 298.392 1154.266 C 302.858 1165.106, 315.249 1189.914, 321.284 1200.098 C 329.061 1213.223, 345.812 1237.874, 353.754 1247.883 C 369.762 1268.057, 395.650 1292.066, 416.437 1306.017 C 424.259 1311.267, 442.143 1320.994, 460.500 1329.982 C 483.871 1341.425, 499.391 1345.287, 521.540 1345.172 C 536.304 1345.095, 546.661 1343.316, 558 1338.908 C 571.545 1333.643, 571.353 1332.320, 557.645 1336.460 C 533.942 1343.619, 505.970 1342.420, 478.830 1333.080 C 449.633 1323.033, 452.586 1324.325, 439 1315.655 C 401.540 1291.752, 372.920 1263.840, 346.301 1225.252 C 334.946 1208.790, 327.200 1195.214, 315.063 1170.500 C 305.881 1151.805, 303.306 1145.800, 291.687 1116 C 284.193 1096.782, 274.642 1066.401, 268.109 1041 C 248.338 964.137, 239.047 893.450, 235.986 796.615 C 234.827 759.942, 234.909 696.139, 236.145 672.500 C 237.286 650.695, 241.559 608.731, 244.494 590.500 C 245.822 582.250, 247.851 568.750, 249.001 560.500 C 253.110 531.042, 263.623 479.894, 271.920 449 C 286.610 394.302, 314.260 328.249, 342.454 280.500 C 347.325 272.250, 351.581 265.275, 351.911 265 C 352.241 264.725, 355.027 261.125, 358.103 257 C 363.706 249.485, 373.841 238.122, 372.313 241.068 C 371.866 241.930, 367.571 247.834, 362.769 254.186 C 345.133 277.519, 322.341 319.399, 305.999 358.500 C 302.092 367.850, 298.482 376.400, 297.977 377.500 C 293.688 386.856, 280.136 425.679, 277.034 437.500 C 269.474 466.307, 266.752 477.260, 264.110 489.500 C 259.818 509.385, 253.369 543.574, 251.472 556.500 C 250.585 562.550, 249.253 571.550, 248.512 576.500 C 239.412 637.364, 236.997 670.784, 237.027 735.500 C 237.095 881.997, 251.113 987.016, 284.214 1089 C 288.419 1101.953, 301.097 1135.866, 304.979 1144.543 C 324.196 1187.496, 341.758 1217.629, 363.526 1245 C 387.889 1275.635, 407.967 1293.329, 441.759 1313.946 C 452.779 1320.670, 469.750 1328.190, 484.916 1333.069 C 509.725 1341.051, 539.201 1340.959, 563.500 1332.823 C 574.764 1329.052, 597.147 1317.986, 607.111 1311.263 C 616.765 1304.748, 630.724 1293.468, 638.836 1285.626 C 646.337 1278.375, 665.052 1257.626, 670.593 1250.418 C 672.742 1247.623, 677.352 1241.635, 680.837 1237.112 C 688.641 1226.986, 702.615 1205.529, 711.905 1189.409 C 737.037 1145.797, 757.190 1090.011, 769.429 1030.174 C 788.092 938.931, 799.128 802.183, 795.108 712 C 792.964 663.929, 789.237 615.752, 785.438 587 C 784.602 580.675, 783.506 572.350, 783.003 568.500 C 781.253 555.111, 779.932 546.431, 777.903 535 C 776.781 528.675, 775.227 519.675, 774.450 515 C 767.096 470.761, 748.401 404.562, 730.535 359.500 C 715.380 321.278, 696.694 286.570, 677.501 261 C 661.557 239.757, 661.906 240.168, 645 222.684 C 617.222 193.956, 584.023 174.426, 550.500 167.092 C 529.294 162.452, 512.202 162.155, 491.500 166.065 C 470.007 170.124, 465.298 171.560, 447.764 179.398 C 428.319 188.091, 401.264 208.590, 376.660 233.274 C 370.148 239.807, 364.617 244.951, 364.370 244.704 C 363.654 243.988, 377.905 228.875, 389.170 218.403 C 408.075 200.829, 432.989 183.551, 449 176.912 C 452.575 175.429, 457.542 173.324, 460.037 172.235 C 469.350 168.168, 494.932 162.893, 512.002 161.520 C 526.661 160.340, 548.059 163.468, 567.500 169.632 C 585.710 175.406, 610.835 189.749, 629.599 205.081 C 639.514 213.183, 660.762 235.846, 672.529 250.871 C 697.470 282.716, 718.675 321.837, 735.787 367.575 C 748.449 401.418, 761.108 442.689, 767.666 471.500 C 777.319 513.914, 787.555 577.902, 791.021 617.500 C 793.471 645.487, 795.970 683.377, 797.090 709.500 C 799.013 754.361, 797.251 824.530, 793.072 869.500 C 792.510 875.550, 791.570 886.575, 790.982 894 C 789.985 906.606, 785.272 946.326, 783.032 961 C 782.487 964.575, 780.425 978.075, 778.450 991 C 771.012 1039.692, 760.237 1082.219, 745.035 1122.884 C 725.471 1175.219, 697.980 1221.837, 662.412 1263 C 652.836 1274.082, 633.688 1293.834, 626.500 1300.045 L 621.500 1304.366 625.704 1301.933 C 633.487 1297.428, 656.158 1277.609, 670.163 1263.066 C 685.453 1247.190, 700.333 1228.171, 712.398 1209.085 C 721.186 1195.181, 736.439 1165.627, 742.955 1149.876 C 745.315 1144.169, 749.008 1135.225, 751.160 1130 C 758.062 1113.242, 769.678 1074.291, 773.975 1053.500 C 781.376 1017.683, 783.543 1004.752, 792.072 945.500 C 797.465 908.036, 797.987 903.886, 800.949 875 C 805.743 828.241, 806.492 814.171, 806.481 771 C 806.454 663.084, 793.082 541.780, 772.061 458.755 C 762.543 421.162, 747.270 372.876, 739.074 354.466 C 737.858 351.735, 735.379 345.675, 733.565 341 C 726.540 322.894, 710.114 292.700, 694.667 269.500 C 679.161 246.211, 658.684 223.304, 637.500 205.548 C 615.646 187.230, 597.837 177.111, 567.500 165.772 C 554.326 160.848, 543.753 158.472, 528.500 157.010 C 518.649 156.066, 516.422 156.026, 508.500 156.652" stroke="none" fill="#121212" fill-rule="evenodd"/><path d="M 486 155.525 C 457.237 160.902, 429.090 174.079, 399.105 196.204 C 388.597 203.957, 363.905 228.128, 354.364 240 C 331.129 268.913, 306.907 312.719, 288.013 360 C 272.644 398.458, 258.004 449.184, 250.492 490 C 249.025 497.975, 246.739 510.350, 245.414 517.500 C 237.091 562.397, 227.938 633.176, 224.529 679 C 221.194 723.839, 220.525 792.101, 223.088 826 C 223.525 831.775, 224.376 843.622, 224.980 852.327 C 228.867 908.371, 241.815 991.038, 254.374 1040 C 268.247 1094.083, 281.416 1130.518, 302.986 1174.500 C 333.082 1235.864, 371.973 1282.379, 418.135 1312.223 C 428.760 1319.092, 456.495 1333.615, 468.097 1338.385 C 498.132 1350.735, 526.620 1352.539, 554.691 1343.868 C 562.978 1341.309, 584.109 1331.587, 597.471 1324.187 C 628.916 1306.772, 659.805 1282.040, 681.890 1256.596 C 706.308 1228.465, 724.254 1201.455, 738.457 1171.457 C 741.506 1165.018, 744 1159.584, 744 1159.380 C 744 1159.175, 745.510 1155.739, 747.356 1151.743 C 758.978 1126.581, 773.658 1078.038, 781.600 1038.500 C 786.027 1016.462, 791.909 980.062, 796.062 949 C 796.540 945.425, 798.270 932.600, 799.906 920.500 C 809.694 848.134, 812.449 797.202, 810.103 732 C 808.291 681.621, 806.679 658.083, 801.887 612 C 799.880 592.703, 792.077 534.084, 789.973 522.500 C 782.475 481.222, 777.834 461.046, 768.350 428.500 C 761.904 406.378, 751.190 373.769, 746.830 363 C 745.160 358.875, 743.181 353.925, 742.433 352 C 728.895 317.166, 710.104 282.916, 688.120 253 C 673.992 233.776, 648.996 208.524, 629.500 193.782 C 605.200 175.406, 566.881 158.305, 541.500 154.508 C 526.032 152.194, 501.400 152.645, 486 155.525 M 509 154.655 C 484.916 156.963, 469.110 160.676, 451.808 168.090 C 388.694 195.134, 344.864 241.960, 305.734 324.152 C 288.576 360.191, 273.533 402.145, 263.075 443.127 C 255.422 473.120, 247.944 511.244, 241.623 552.500 C 237.354 580.361, 235.825 591.165, 233.559 609.500 C 225.961 670.963, 223.656 706.071, 223.613 761 C 223.554 836.405, 229.753 903.497, 243.987 981.500 C 245.091 987.550, 246.468 995.401, 247.048 998.947 C 248.212 1006.073, 256.056 1039.071, 260.848 1057 C 268.446 1085.434, 282.408 1124.586, 295.438 1154 C 301.240 1167.099, 315.448 1195.416, 318.053 1199.075 C 319.124 1200.578, 320 1202.068, 320 1202.385 C 320 1202.702, 321.688 1205.506, 323.750 1208.615 C 325.813 1211.725, 327.950 1214.990, 328.500 1215.870 C 348.359 1247.653, 370.997 1273.585, 397 1294.334 C 410.998 1305.504, 418.848 1310.705, 436.183 1320.292 C 474.428 1341.444, 495.475 1347.748, 524.429 1346.724 C 545.715 1345.972, 554.608 1343.445, 580 1330.932 C 615.172 1313.600, 644.206 1292.812, 669.522 1266.836 C 697.087 1238.551, 716.758 1210.597, 734.497 1174.500 C 751.643 1139.610, 761.721 1111.920, 771.987 1071.500 C 779.205 1043.084, 784.312 1016.608, 788.962 983.500 C 790.121 975.250, 791.943 962.650, 793.010 955.500 C 798.866 916.279, 803.436 877.774, 806.719 840 C 809.107 812.511, 809.059 733.093, 806.630 693.500 C 800.959 601.076, 788.406 510.331, 773.637 455 C 754.976 385.081, 733.910 329.702, 711.826 292.500 C 695.716 265.362, 683.469 248.619, 666.163 230.074 C 634.366 195.999, 604.594 176.017, 566 162.844 C 554.240 158.830, 546.472 157.115, 532.500 155.449 C 520.972 154.074, 516.608 153.926, 509 154.655 M 508.500 156.652 C 486.940 158.357, 471.818 161.889, 453.356 169.531 C 420.893 182.970, 395.036 201.478, 368.179 230.500 C 332.366 269.201, 297.400 337.605, 273.870 415 C 254.081 480.088, 236.063 585.640, 228.462 681 C 225.969 712.275, 225.380 793.330, 227.410 825.876 C 232.562 908.487, 247.434 1002.050, 265.063 1062.748 C 273.069 1090.313, 290.613 1139.794, 294.050 1144.500 C 294.452 1145.050, 296.406 1149.445, 298.392 1154.266 C 302.858 1165.106, 315.249 1189.914, 321.284 1200.098 C 329.061 1213.223, 345.812 1237.874, 353.754 1247.883 C 369.762 1268.057, 395.650 1292.066, 416.437 1306.017 C 424.259 1311.267, 442.143 1320.994, 460.500 1329.982 C 483.871 1341.425, 499.391 1345.287, 521.540 1345.172 C 536.304 1345.095, 546.661 1343.316, 558 1338.908 C 571.545 1333.643, 571.353 1332.320, 557.645 1336.460 C 533.942 1343.619, 505.970 1342.420, 478.830 1333.080 C 449.633 1323.033, 452.586 1324.325, 439 1315.655 C 401.540 1291.752, 372.920 1263.840, 346.301 1225.252 C 334.946 1208.790, 327.200 1195.214, 315.063 1170.500 C 305.881 1151.805, 303.306 1145.800, 291.687 1116 C 284.193 1096.782, 274.642 1066.401, 268.109 1041 C 248.338 964.137, 239.047 893.450, 235.986 796.615 C 234.827 759.942, 234.909 696.139, 236.145 672.500 C 237.286 650.695, 241.559 608.731, 244.494 590.500 C 245.822 582.250, 247.851 568.750, 249.001 560.500 C 253.110 531.042, 263.623 479.894, 271.920 449 C 286.610 394.302, 314.260 328.249, 342.454 280.500 C 347.325 272.250, 351.581 265.275, 351.911 265 C 352.241 264.725, 355.027 261.125, 358.103 257 C 363.706 249.485, 373.841 238.122, 372.313 241.068 C 371.866 241.930, 367.571 247.834, 362.769 254.186 C 345.133 277.519, 322.341 319.399, 305.999 358.500 C 302.092 367.850, 298.482 376.400, 297.977 377.500 C 293.688 386.856, 280.136 425.679, 277.034 437.500 C 269.474 466.307, 266.752 477.260, 264.110 489.500 C 259.818 509.385, 253.369 543.574, 251.472 556.500 C 250.585 562.550, 249.253 571.550, 248.512 576.500 C 239.412 637.364, 236.997 670.784, 237.027 735.500 C 237.095 881.997, 251.113 987.016, 284.214 1089 C 288.419 1101.953, 301.097 1135.866, 304.979 1144.543 C 324.196 1187.496, 341.758 1217.629, 363.526 1245 C 387.889 1275.635, 407.967 1293.329, 441.759 1313.946 C 452.779 1320.670, 469.750 1328.190, 484.916 1333.069 C 509.725 1341.051, 539.201 1340.959, 563.500 1332.823 C 574.764 1329.052, 597.147 1317.986, 607.111 1311.263 C 616.765 1304.748, 630.724 1293.468, 638.836 1285.626 C 646.337 1278.375, 665.052 1257.626, 670.593 1250.418 C 672.742 1247.623, 677.352 1241.635, 680.837 1237.112 C 688.641 1226.986, 702.615 1205.529, 711.905 1189.409 C 737.037 1145.797, 757.190 1090.011, 769.429 1030.174 C 788.092 938.931, 799.128 802.183, 795.108 712 C 792.964 663.929, 789.237 615.752, 785.438 587 C 784.602 580.675, 783.506 572.350, 783.003 568.500 C 781.253 555.111, 779.932 546.431, 777.903 535 C 776.781 528.675, 775.227 519.675, 774.450 515 C 767.096 470.761, 748.401 404.562, 730.535 359.500 C 715.380 321.278, 696.694 286.570, 677.501 261 C 661.557 239.757, 661.906 240.168, 645 222.684 C 617.222 193.956, 584.023 174.426, 550.500 167.092 C 529.294 162.452, 512.202 162.155, 491.500 166.065 C 470.007 170.124, 465.298 171.560, 447.764 179.398 C 428.319 188.091, 401.264 208.590, 376.660 233.274 C 370.148 239.807, 364.617 244.951, 364.370 244.704 C 363.654 243.988, 377.905 228.875, 389.170 218.403 C 408.075 200.829, 432.989 183.551, 449 176.912 C 452.575 175.429, 457.542 173.324, 460.037 172.235 C 469.350 168.168, 494.932 162.893, 512.002 161.520 C 526.661 160.340, 548.059 163.468, 567.500 169.632 C 585.710 175.406, 610.835 189.749, 629.599 205.081 C 639.514 213.183, 660.762 235.846, 672.529 250.871 C 697.470 282.716, 718.675 321.837, 735.787 367.575 C 748.449 401.418, 761.108 442.689, 767.666 471.500 C 777.319 513.914, 787.555 577.902, 791.021 617.500 C 793.471 645.487, 795.970 683.377, 797.090 709.500 C 799.013 754.361, 797.251 824.530, 793.072 869.500 C 792.510 875.550, 791.570 886.575, 790.982 894 C 789.985 906.606, 785.272 946.326, 783.032 961 C 782.487 964.575, 780.425 978.075, 778.450 991 C 771.012 1039.692, 760.237 1082.219, 745.035 1122.884 C 725.471 1175.219, 697.980 1221.837, 662.412 1263 C 652.836 1274.082, 633.688 1293.834, 626.500 1300.045 L 621.500 1304.366 625.704 1301.933 C 633.487 1297.428, 656.158 1277.609, 670.163 1263.066 C 685.453 1247.190, 700.333 1228.171, 712.398 1209.085 C 721.186 1195.181, 736.439 1165.627, 742.955 1149.876 C 745.315 1144.169, 749.008 1135.225, 751.160 1130 C 758.062 1113.242, 769.678 1074.291, 773.975 1053.500 C 781.376 1017.683, 783.543 1004.752, 792.072 945.500 C 797.465 908.036, 797.987 903.886, 800.949 875 C 805.743 828.241, 806.492 814.171, 806.481 771 C 806.454 663.084, 793.082 541.780, 772.061 458.755 C 762.543 421.162, 747.270 372.876, 739.074 354.466 C 737.858 351.735, 735.379 345.675, 733.565 341 C 726.540 322.894, 710.114 292.700, 694.667 269.500 C 679.161 246.211, 658.684 223.304, 637.500 205.548 C 615.646 187.230, 597.837 177.111, 567.500 165.772 C 554.326 160.848, 543.753 158.472, 528.500 157.010 C 518.649 156.066, 516.422 156.026, 508.500 156.652 M 507 166.130 C 459.787 168.716, 411.849 195.645, 376.387 239.500 C 345.983 277.101, 324.597 316.511, 296.345 387 C 282.610 421.270, 269.564 469.008, 259.587 521.500 C 255.940 540.685, 255.988 540.402, 252.890 561 C 251.774 568.425, 250.474 576.975, 250.002 580 C 247.793 594.153, 246.812 601.708, 244.448 622.806 C 240.663 656.583, 240.002 669.674, 239.330 724.173 C 238.673 777.495, 239.646 812.012, 243.088 857.500 C 246.586 903.725, 248.972 923.808, 255.975 966 C 257.988 978.130, 263.147 1003.452, 265.957 1015 C 267.496 1021.325, 269.521 1029.875, 270.457 1034 C 274.899 1053.575, 287.643 1094.213, 297.269 1119.500 C 315.307 1166.881, 335.374 1204.703, 359.345 1236.500 C 364.470 1243.298, 373.313 1254.313, 375 1256 C 375.275 1256.275, 378.715 1260.106, 382.643 1264.514 C 394.571 1277.896, 411.427 1291.762, 433.714 1306.524 C 444.871 1313.914, 455.009 1319.208, 469.074 1324.990 C 514.119 1343.506, 553.888 1340.542, 596.544 1315.489 C 617.983 1302.897, 635.611 1287.558, 657.441 1262.500 C 674.109 1243.366, 680.486 1235.084, 692.470 1217 C 724.267 1169.020, 743.401 1124.818, 760.863 1059 C 771.061 1020.561, 781.225 954.953, 787.431 887.500 C 792.420 833.276, 793.902 799.295, 793.471 749 C 793.063 701.366, 792.179 681.771, 788.440 637.500 C 785.447 602.073, 779.842 556.580, 775.378 531.500 C 765.746 477.378, 757.981 446.286, 741.790 397 C 717.143 321.976, 687.129 268.820, 645.035 225.642 C 624.954 205.044, 608.270 192.597, 586.500 181.974 C 559.853 168.971, 537.276 164.471, 507 166.130 M 658.552 230.250 C 661.773 233.688, 664.973 237.175, 665.662 238 C 666.352 238.825, 668.420 241.300, 670.257 243.500 C 676.767 251.292, 691 270.553, 691 271.570 C 691 271.816, 693.446 275.771, 696.436 280.358 C 699.425 284.945, 703.496 291.652, 705.481 295.264 C 707.466 298.875, 709.745 302.373, 710.545 303.037 C 711.345 303.701, 712 304.851, 712 305.591 C 712 306.331, 713.759 310.439, 715.909 314.718 C 720.251 323.359, 731.357 348.239, 732.440 351.750 C 732.822 352.988, 733.581 354, 734.126 354 C 734.672 354, 734.860 354.417, 734.545 354.927 C 734.230 355.437, 734.936 358.250, 736.115 361.177 C 754.035 405.673, 770.881 467.459, 780.511 524 C 781.400 529.225, 782.765 536.425, 783.542 540 C 785.047 546.921, 786.847 559.272, 787.549 567.500 C 787.784 570.250, 788.415 575.425, 788.952 579 C 791.827 598.163, 794.998 633.858, 797.567 676 C 798.423 690.025, 799.309 704.200, 799.537 707.500 C 800.191 716.939, 800.213 782.255, 799.567 795 C 799.247 801.325, 798.526 815.950, 797.966 827.500 C 797.406 839.050, 796.293 856.600, 795.492 866.500 C 794.692 876.400, 793.772 887.875, 793.450 892 C 792.893 899.119, 789.973 925.782, 787.975 942 C 787.466 946.125, 785.903 957.150, 784.501 966.500 C 783.098 975.850, 781.528 986.650, 781.011 990.500 C 778.853 1006.557, 772.174 1040.114, 767.774 1057 C 762.974 1075.421, 761.719 1080.014, 759.307 1088 C 753.545 1107.072, 742.595 1136.955, 738.153 1145.728 C 737.103 1147.803, 735.928 1150.963, 735.543 1152.750 C 735.157 1154.537, 734.481 1156, 734.042 1156 C 733.602 1156, 732.667 1157.462, 731.964 1159.250 C 730.049 1164.117, 719.236 1185.663, 716.610 1189.846 C 715.348 1191.856, 712.829 1196.200, 711.012 1199.500 C 707.218 1206.391, 691.256 1230.580, 686.622 1236.462 C 684.905 1238.641, 684.063 1240.077, 684.750 1239.653 C 685.464 1239.212, 686 1239.361, 686 1240 C 686 1240.615, 686.457 1240.835, 687.016 1240.490 C 687.575 1240.144, 687.772 1239.440, 687.453 1238.924 C 686.674 1237.663, 690.907 1231.824, 692.076 1232.547 C 692.584 1232.861, 693 1232.390, 693 1231.500 C 693 1230.610, 693.448 1230.159, 693.996 1230.497 C 694.543 1230.836, 695.546 1229.850, 696.225 1228.306 C 696.903 1226.763, 697.995 1225.160, 698.651 1224.744 C 699.308 1224.328, 700.868 1222.303, 702.119 1220.244 C 703.371 1218.185, 704.674 1216.275, 705.015 1216 C 705.356 1215.725, 707.382 1212.575, 709.517 1209 C 711.652 1205.425, 713.947 1201.825, 714.618 1201 C 716.435 1198.766, 726.900 1179, 726.266 1179 C 725.966 1179, 725.085 1179.787, 724.308 1180.750 C 723.022 1182.345, 722.958 1182.280, 723.589 1180.019 C 724.344 1177.315, 728.113 1171.779, 728.759 1172.426 C 728.979 1172.646, 728.336 1174.086, 727.330 1175.625 C 726.319 1177.170, 726.080 1178.065, 726.795 1177.624 C 728.549 1176.544, 738.243 1156.202, 737.544 1155.071 C 737.238 1154.576, 737.377 1154.020, 737.854 1153.835 C 739.715 1153.115, 750.314 1126.904, 758.007 1104 C 767.965 1074.351, 779.984 1018.719, 785.014 979 C 786.185 969.751, 788.859 950.947, 791.910 930.500 C 792.977 923.350, 794.126 915.025, 794.463 912 C 794.801 908.975, 795.267 905.375, 795.500 904 C 795.733 902.625, 796.183 899.025, 796.500 896 C 796.817 892.975, 797.278 889.375, 797.525 888 C 798.087 884.861, 800.432 858.938, 802.634 831.500 C 804.395 809.571, 805.088 727.570, 803.534 725.056 C 803.123 724.389, 802.578 716.792, 802.323 708.172 C 802.069 699.553, 801.555 692.389, 801.181 692.253 C 800.806 692.117, 800.646 688.438, 800.824 684.078 C 801.002 679.719, 800.457 668.580, 799.614 659.326 C 798.771 650.072, 797.548 636.326, 796.898 628.779 C 796.247 621.232, 795.442 615.227, 795.108 615.433 C 794.773 615.640, 794.490 613.489, 794.477 610.655 C 794.465 607.820, 794.150 603.250, 793.777 600.500 C 793.405 597.750, 792.840 592.350, 792.523 588.500 C 792.206 584.650, 791.505 578.800, 790.965 575.500 C 790.425 572.200, 789.293 564.325, 788.450 558 C 787.606 551.675, 786.459 544.025, 785.901 541 C 785.343 537.975, 783.805 528.750, 782.483 520.500 C 779.114 499.472, 777.453 491.333, 771.870 468.500 C 765.285 441.570, 763.653 435.610, 762.666 434.888 C 762.206 434.552, 761.939 434.102, 762.073 433.888 C 762.507 433.196, 760.929 425.608, 759.496 421.500 C 758.729 419.300, 756.913 413.561, 755.461 408.747 C 754.009 403.932, 752.416 400.243, 751.922 400.548 C 751.427 400.854, 751.275 400.448, 751.582 399.647 C 752.540 397.149, 744.472 373.151, 737.244 357 C 736.136 354.525, 734.186 349.800, 732.911 346.500 C 729.757 338.338, 728.431 335.902, 727.599 336.735 C 727.211 337.122, 727.163 336.739, 727.491 335.883 C 727.983 334.601, 722.316 321.500, 717.825 313.538 C 717.216 312.459, 715.752 309.759, 714.570 307.538 C 707.971 295.132, 683.431 256.626, 681.087 255 C 680.691 254.725, 678.430 251.912, 676.063 248.750 C 673.696 245.588, 671.461 243, 671.095 243 C 670.730 243, 669.680 241.762, 668.761 240.250 C 666.637 236.751, 654.709 224, 653.561 224 C 653.085 224, 655.331 226.813, 658.552 230.250 M 353.764 251.750 C 350.819 255.084, 334.304 280.550, 327.986 291.500 C 312.585 318.192, 293.958 361.019, 281.510 398.359 C 271.737 427.676, 262.234 464.823, 256.018 498 C 254.318 507.075, 252.528 516.525, 252.039 519 C 250.714 525.716, 249.069 535.106, 248.624 538.500 C 248.407 540.150, 247.514 546, 246.639 551.500 C 242.748 575.958, 239.898 595.465, 238.456 607.500 C 237.599 614.650, 236.541 623.104, 236.105 626.287 C 235.668 629.470, 235.691 632.309, 236.155 632.596 C 236.620 632.883, 237.008 632.754, 237.017 632.309 C 237.087 629.066, 239.675 606.727, 241.050 597.500 C 247.254 555.868, 250.823 533.233, 252.403 525.500 C 253.189 521.650, 254.586 514.450, 255.508 509.500 C 256.430 504.550, 258.053 496.450, 259.115 491.500 C 260.177 486.550, 261.252 481.375, 261.505 480 C 261.925 477.706, 264.897 466.524, 274.396 431.500 C 276.335 424.350, 278.417 417.150, 279.023 415.500 C 279.629 413.850, 281.467 408.675, 283.108 404 C 284.749 399.325, 286.503 394.600, 287.006 393.500 C 287.509 392.400, 289.919 386.325, 292.361 380 C 294.803 373.675, 298.421 364.956, 300.400 360.625 C 302.380 356.294, 304 352.380, 304 351.928 C 304 351.476, 305.526 347.820, 307.391 343.803 C 309.256 339.786, 311.556 334.700, 312.501 332.500 C 314.628 327.551, 329.951 296.872, 330.982 295.500 C 331.394 294.950, 332.968 292.250, 334.478 289.500 C 335.988 286.750, 339.687 280.365, 342.698 275.311 C 346.479 268.966, 347.979 265.510, 347.545 264.143 C 347.116 262.792, 347.817 261.107, 349.753 258.832 C 354.388 253.385, 358.083 246.860, 353.764 251.750 M 234.918 637.691 C 234.873 639.236, 234.664 641.625, 234.455 643 C 233.755 647.601, 231.089 675.400, 230.522 684 C 230.214 688.675, 229.750 695.650, 229.491 699.500 C 228.144 719.491, 227.824 780.192, 228.919 808 C 230.305 843.207, 234.582 892.048, 238.420 916.500 C 239.197 921.450, 240.341 929.100, 240.961 933.500 C 243.815 953.743, 250.213 991.231, 253.078 1004.500 C 265.171 1060.506, 279.214 1104.795, 299.848 1152 C 303.093 1159.425, 306.239 1165.393, 306.838 1165.262 C 307.438 1165.131, 307.677 1165.677, 307.371 1166.476 C 307.065 1167.274, 309.265 1172.556, 312.261 1178.214 C 325.481 1203.179, 327.489 1206.434, 329.074 1205.454 C 329.518 1205.180, 329.133 1203.651, 328.218 1202.056 C 327.303 1200.462, 326.128 1199.421, 325.607 1199.743 C 325.067 1200.076, 324.943 1199.590, 325.319 1198.612 C 325.710 1197.593, 325.576 1197.144, 324.989 1197.507 C 324.097 1198.058, 323.566 1196.729, 323.885 1194.740 C 324.109 1193.339, 317.699 1182.519, 315.588 1180.737 C 313.923 1179.331, 313.859 1179.101, 315.269 1179.601 C 316.956 1180.200, 316.958 1180.088, 315.296 1177.193 C 314.338 1175.524, 313.209 1174.371, 312.788 1174.631 C 312.367 1174.891, 312.253 1174.505, 312.533 1173.774 C 312.814 1173.043, 310.968 1168.182, 308.432 1162.972 C 305.896 1157.762, 303.230 1151.925, 302.509 1150 C 301.788 1148.075, 298.656 1140.200, 295.549 1132.500 C 285.976 1108.778, 272.490 1069.837, 271.305 1062.500 C 271.128 1061.400, 270.552 1059.375, 270.025 1058 C 266.480 1048.740, 253.946 992.864, 249.500 966.500 C 248.665 961.550, 247.538 955.250, 246.996 952.500 C 246.454 949.750, 245.792 945.700, 245.524 943.500 C 244.471 934.847, 243.830 930.295, 242.989 925.500 C 242.507 922.750, 241.836 916.900, 241.499 912.500 C 241.162 908.100, 240.473 900.675, 239.967 896 C 238.409 881.598, 235.138 833.777, 233.948 808 C 232.847 784.180, 233.187 663.154, 234.372 656.500 C 235.607 649.570, 236.534 635.830, 235.797 635.374 C 235.359 635.104, 234.963 636.146, 234.918 637.691 M 329.191 1207.750 C 330.371 1210.224, 334.228 1216.228, 339.209 1223.344 C 349.991 1238.746, 352.441 1242, 353.255 1242 C 354.327 1242, 352.695 1239.064, 350.082 1236.292 C 348.937 1235.077, 348 1233.695, 348 1233.219 C 348 1232.743, 345.300 1228.668, 342 1224.163 C 338.700 1219.658, 336 1215.551, 336 1215.036 C 336 1214.521, 335.285 1213.699, 334.410 1213.210 C 333.536 1212.721, 332.856 1211.911, 332.898 1211.410 C 333.079 1209.290, 331.756 1207, 330.349 1207 C 329.516 1207, 328.994 1207.338, 329.191 1207.750 M 358.529 1248.723 C 360.651 1251.596, 362.574 1253.759, 362.803 1253.531 C 363.375 1252.959, 359.708 1247.933, 356.944 1245.500 C 355.668 1244.377, 356.363 1245.791, 358.529 1248.723" stroke="none" fill="#ededed" fill-rule="evenodd"/></svg>