<svg id="Layer_1" data-name="Layer 1" xmlns="http://www.w3.org/2000/svg" width="490.72" height="657.54" viewBox="0 0 490.72 657.54"><path d="M425,178l2.1-2.56-.52-.55-8.75,5.49.39.67,6.88-3.14c-1,1.17-2,2.36-3.1,3.5-2.41,2.6-4.85,5.18-7.28,7.76l.54.44,12.44-11.38Zm57.12,86.82-2.62-4.33-1.08,2.38-.69-.11c.13-2.88.26-5.76.38-8.53-2.48,3.2-2.39,11.74.39,14.13l1.38-1.62c2.7,3.87,4.91,8.16,9.58,10l-7.44-12c1.44,1.62,2.64,3.58,4.36,4.78,5.26,3.67,10.72,7.05,16.12,10.52.08.05.38-.22,1.17-.72-1.93-1.41-3.51-3-5.41-3.89-6.41-3.13-12.56-6.44-15.15-14.85C482.6,262.71,482.36,263.77,482.11,264.83ZM688.39,381.77c-.15-.47-.16-1.06-.46-1.38-6.34-6.67-12.55-13.39-20.62-18.23-7.38-4.43-14.4-9.6-17.08-18.51-1.87-6.2-3.83-12.38-5.34-18.67-.6-2.54-.1-5.34-.1-8l.89-.18c.93,6.37,1.86,12.75,6.09,17.39-.86-4.28-1.82-8.88-2.72-13.49-1.47-7.44-3-14.88-4.32-22.35a124.61,124.61,0,0,1-2-14.73c-.33-6.19-.57-12.49-4.34-17.54-5.12-6.87-10.77-13.36-16.5-19.73a48,48,0,0,0-9.35-8c-8-5.22-16.27-10-24.42-15l-.57.91c.16.61.31,1.23.57,2.31a23,23,0,0,1-2.59-1.52c-10.62-8.62-21.2-17.29-31.83-25.9-4.24-3.43-8.16-7.63-13-9.89-7.12-3.34-14.94-5.17-22.39-7.83-6.85-2.44-13.62-5.12-20.42-7.69,2.86-.55,6.06-1.32,8.68-.41,10.65,3.71,21.11,7.93,31.65,12l.41-.91c-11.21-8.24-24.67-11.87-35.82-16.92-2.25,1.11-3.49,2.16-4.8,2.25a12.38,12.38,0,0,1-5.11-.9,23.8,23.8,0,0,0-17.78.37l8.72,9.75.93-.78c-1.18-1.86-2.35-3.73-3.93-6.22l4.78,1.35c-.73-1.31-1.14-2-2.09-3.72l10.55,2.89-4.57,1.31c16.14,2.24,29.64,11.69,45.19,15.58,9.52,2.38,16.77,9.85,20.86,20,3.69,9.13,10.54,16.26,19,21.52,7.19,4.44,15.21,5.26,23.43,5.35a6.06,6.06,0,0,1,4.1,1.64c3.72,4.34,7,9.1,10.74,13.39,7.15,8.12,14.54,16,21.85,24,.25.28.83.26,1.91.57-1.15-4.85-3-8.76-6.52-11.4-6-4.53-9.29-10.75-11.89-17.65,8.87,4.91,26.89,31.9,22.15,39.41l-9.63-13.72a6,6,0,0,0-.38,1.1,37.2,37.2,0,0,0,2.15,3.47c10.17,13.06,12.84,27.73,9.73,43.76a19.74,19.74,0,0,0,.19,7.06c2.43,13.73,7.45,25.88,20.49,33.13a17.55,17.55,0,0,1,5.7,4.67c3.82,5.31,7.15,11,10.84,16.36a46.47,46.47,0,0,0,4.56,5l.36-.32-6-12,.68-.36,9.35,7.49c1.49,2.92,3.64,5.69,4.33,8.79,2,9.15-.25,17.88-4.35,26.42l-1.2-11.63,1,.14-6.6,42-1.44-.19c1.24-9.72,2.36-19.46,3.77-29.15,1.55-10.69,2.14-21.06-4.91-30.42-2.76-3.66-4.72-7.92-7.16-11.83-1-1.65-2.34-3.12-3.52-4.67l-.94.64c3.06,6.11,6.11,12.23,9.2,18.33,2.14,4.22,4.68,8.28,4.3,13.33-1.15,15.26-2.16,30.54-3.41,45.8-.94,11.43-2.24,22.83-3.19,34.26a11.2,11.2,0,0,0,1,5.75c2.75,5.42,5.92,10.63,8.74,16a10.35,10.35,0,0,1,1,4.61c.06,8.6-.69,17.26.1,25.78a84.18,84.18,0,0,1-1.78,28.91c-2,7.81-3.82,15.39-9.58,21.53s-11.14,13.09-17,19.36c-10.54,11.29-14.34,24.85-13.93,39.85,0,2,1.4,3.89,2,5.88.66,2.31,1.7,4.72,1.56,7-.49,7.6-4.49,13.52-9.83,18.69-3.67,3.55-7.88,6.77-10.67,10.92-6.51,9.69-12.26,19.9-18.43,29.83-6.28,10.12-11.44,21.15-22.17,27.75-.15.09-.16.43-.65,1.9,6.32-2.89,12.68-4.41,17.19-8.16a293,293,0,0,0,29.08-27.39,62.72,62.72,0,0,0,17-45.77c-.3-10.41-.91-20.89,2.81-31.36a136,136,0,0,1,15.24-31.07,75.31,75.31,0,0,1,5.22-6.24l1.4.92-20.31,39.77,1,.45c16.63-27.12,29.88-55.64,36.72-87.07.16,3.43.33,6.87.5,10.59,3-16.57-2.31-32.24-3.51-49.16,5.49,4.65,4,10.52,5,15.47s1.22,10.37,1.59,15.58.51,10.26.74,15.38l1.56-.07c0-9.56.3-19.13-.14-28.67a37.24,37.24,0,0,0-3-13.81c-4.15-8.88-9.34-17.27-13.85-26a19.35,19.35,0,0,1-2-7.68,139.56,139.56,0,0,1-.05-18.63c.34-4.16,2-8.2,3.08-12.29l.71.24v22.44h.36l4.23-28.12,1.34.08V469.3c.94-.27,1.17-.57,1.2-.89.15-1.86.38-3.73.37-5.6-.16-17.29,1.47-34.36,6.19-51.07,1.92-6.82,2.88-13.85.14-20.61C693,387.75,690.43,384.87,688.39,381.77ZM265.44,661.17l.92.39c.56-.37,1.57-.69,1.62-1.13.36-2.82,1-5.75.62-8.5-1.1-7.39-2.38-14.78-4.15-22-2.58-10.53-7.53-19.69-16.48-26.41a133.5,133.5,0,0,1-12.13-10.54c-6.91-6.64-12.91-14.23-16.06-23.2-4-11.45-3.37-23.28.26-35,3.11-10,5.91-20.08,8.61-30.19.77-2.85.42-6,1.08-8.88,1.47-6.33,2-12.66-.53-18.72-1.83-4.45-4.56-8.52-6.74-12.84-.54-1.06-1-3.3-.62-3.51,3.78-2.18,2.86-5.77,3-9,.52-11.59-5.45-21-10.27-30.82a38,38,0,0,1-3.11-11c-1.13-7.55,3.07-13.62,6.22-20,7-14.09,14.05-28.12,25.57-39.28a38.57,38.57,0,0,0,3.38-4.4,3.52,3.52,0,0,0-2.24,1c-11.42,11.46-20.78,24.51-29.52,38.06-6.69,10.38-5,22-5.49,33.36a6,6,0,0,0,.46,1.81q2.15,7.65,4.31,15.31c2.19-.53,3.75,2.6,2.82,6.06L215,439c.82,4.65,1.47,8.35,2.12,12l-1.48.57c-1.4-3-3-6-4.12-9.07s-1.74-6.45-2.59-9.68a46.6,46.6,0,0,0,1.95,12.86c1.71,5.05,4.3,9.79,6.45,14.69,3.3,7.48,8.34,14.1,9.85,22.48,2.17,11.95-.9,22.53-7,32.6.3-5.65,1.28-11.21,1.84-16.81s.73-11.33,1.06-17l-1.3-.13c-.37,18.13-6.28,35-10.2,52.39l-1.55-.28L213.08,514l-1-.15c-1.24,4.62-3,9.17-3.6,13.88-1.39,11.61-2.3,23.29-3.13,35-.13,1.81.88,3.91,1.89,5.55,4.31,7,8.55,14.07,13.38,20.71,2.16,3,5.53,5.13,8.56,7.39,3.67,2.74,7.53,5.22,11.35,7.76,1.73,1.14,3.53,2.18,5.34,3.19s4.26,1.52,5.54,3c8.43,9.81,12.26,21.54,13.45,34.23.24,2.48,0,5,0,7.5l-1.2.08L258,630.6l-1.55.37c3.56,10.85,2.16,22.73,7.84,34.22ZM502.38,785.25l.29-.84a18.18,18.18,0,0,0-3.63-1.47c-11.89-2-23.6-4.53-35.94-3.75a88,88,0,0,0-30,7c-6.81,3-13.2,2.68-19.87.18-8.5-3.19-16.85-7.13-25.63-9.18a110.24,110.24,0,0,1-26.26-9.51c-2.85-1.48-5.16-3.12-6.52-6.24-1.63-3.75-3.83-7.26-5.78-10.87-4.2-7.81-8.29-15.76-16.14-20.68-6.31-4-12.82-7.62-19.13-11.58-2.42-1.52-4.47-3.63-6.84-5.24-4.12-2.8-8.45-5.28-12.52-8.14-9.62-6.74-18-14.62-22.63-25.77a24.92,24.92,0,0,0-2.92-4.33c-2.51-3.53-5.17-7-7.48-10.61a82.35,82.35,0,0,1-3.95-8c2,13.65,9.66,24.49,17.88,34.8a88.21,88.21,0,0,0,30.88,24.5c-19.45,1.59-30.47-10.84-40.9-24.51,1.2,2.92,2.92,5.43,4.3,8.12,6.85,13.31,18.41,18.94,32.68,19.3a24.57,24.57,0,0,1,15,5.63,20.43,20.43,0,0,0,7.27,3.58c6.22,1.55,13.91,10.06,14.59,17L330.67,737l-.77.75,17.81,21.15-1.2,1.06-17.05-18.83c.79,2.32,2.34,4,3.63,5.77,7.58,10.72,17.79,18.45,29.19,24.47,5.75,3,12.27,4.66,18.5,6.72,6.61,2.18,13.31,4.09,19.94,6.21.76.25,1.31,1.14,2.64,2.34l-12.14-2.52-.3,1.6,21.48,4.19c-11.91.44-22.67.79-32.43-5.54,3.21,2.39,6.43,4.79,10,5.7,12.61,3.18,25.27,1.82,37.76-1,5.17-1.15,10-3.84,15.22-4.75,6-1,12.33-1.94,18.2-1s12.31-3.22,17.74,1.69a1.2,1.2,0,0,0,.72.14ZM271.62,277.11l.72.6c4-4.8,8-9.67,12.07-14.39,3.9-4.46,7.8-9,12.09-13,1.88-1.79,5.15-2.1,7.09-3.86q9.11-8.24,17.61-17.11c5.25-5.46,10.06-11.19,17-14.9,6.1-3.26,11.6-7.63,17.33-11.56,7.54-5.17,14.57-11.35,22.67-15.35,9.4-4.63,19.7-7.46,29.68-10.86,1.65-.57,3.67-.08,5.49-.08l-2.4,9.57,1.2.35c2.14-3.29,3.83-7,6.54-9.77s6.66-4.79,10.06-7.13l-.49-.8c-3.07,1.19-6.11,2.5-9.23,3.53-3.68,1.22-7.25,2.1-11.2.06a14.87,14.87,0,0,0-8-1.32,94,94,0,0,0-15.07,2.75c-3.76,1-8,2.11-10.75,4.6-7.26,6.6-13.81,14-20.66,21a35.47,35.47,0,0,1-4.33,4.08c-6,4.38-12,8.91-18.32,12.86-7.72,4.82-14,11.11-20.33,17.53-7.13,7.24-12.64,16.64-23.66,19.15-.14,0-.2.37-.34.63l2.92,1C282.28,261.57,275.86,268.52,271.62,277.11ZM581.17,747.82l-.31-1a29.78,29.78,0,0,0-4.25.79c-4.6,1.55-9.1,3.44-13.75,4.82-10.19,3-17.87,9.67-25.07,17-12.11,12.32-26.64,19.42-44,19.71-8.93.15-17.89-1-26.84-1.43-2.31-.12-4.63,0-6.95,0a33.75,33.75,0,0,0,7.82,1.55c6,.6,12.1,1.13,18.15,1.67,2,.18,3.92.31,5.88.49,1.7.16,3.56.94,5,.48,9-2.83,18.08-5.48,26.74-9.13a42,42,0,0,0,13.79-9.22c6.67-7,14.93-11.56,22.58-17.08a14.42,14.42,0,0,1,3.08-1.34ZM396.32,146.61C402.39,154,414,158.72,418,156.24l-9.82-4,.37-.75,12.22,2.06.09-.87-11.15-3.94.27-.59,18.73,3.71.48-1.31c-7.16-3.35-14.26-6.83-21.49-10-5.68-2.5-7.76-1.5-10.37,4.28C397.07,145.44,396.65,146,396.32,146.61ZM269.6,270.84c-13.55,16-21.27,44.06-17,60C255.54,310.4,262.55,291,269.6,270.84Zm-22,67,.87-.12c.15-.31.43-.63.42-.93-.42-8.83-1-17.65-1.24-26.48-.09-4.42-.53-9.37,1.17-13.19,5.94-13.27,12.83-26.1,24.2-35.8a18.69,18.69,0,0,0,1.48-1.6,8.77,8.77,0,0,0-4.84,2.74c-6.23,7.76-12.6,15.43-18.35,23.54-5.54,7.82-8.35,16.66-7.11,26.45.88,7,1.67,14.1,2.55,21.14C247,335,247.33,336.39,247.62,337.81ZM487.34,183.72c-.56,1.31-1.07,2.65-1.7,3.94-2.87,5.9-5.78,11.79-8.67,17.69-2.72,5.56-5.78,11-8,16.74-1.5,3.86-1.2,8.12.35,12.34l18.1-30.57-1-.54-14.66,23.32a5.42,5.42,0,0,1-.06-4.2c3-6.25,6.1-12.5,9.48-18.57A47.78,47.78,0,0,0,487.34,183.72Zm-77.89,6.88-1.25.25c-1.19,8.44.17,16.36,5.75,23.21,7.66,9.39,15.27,18.78,17.75,31.12.09.45.66.8,1,1.19a14.89,14.89,0,0,0,.1-6.76c-1.55-6.74-5.27-12.36-9.85-17.37-7.36-8-12.77-16.86-12.79-28.19A17,17,0,0,0,409.45,190.6Zm62.86,65.06.92-.07c2.16-4,4.09-8.21,6.54-12.06,3.46-5.46,7.71-10.44,10.84-16.07,2.25-4,3.23-8.79,4.79-13.29l-12.14,18.48c-3.2,4.86-6.7,9.54-9.44,14.65C472.55,249.67,472.77,252.84,472.31,255.66Zm-43.15-1.14c-4.18,14.65-14.61,23.89-28,31.37C413.43,288.51,429.19,270.47,429.16,254.52Zm-22.75-24-.28.25,18.72,22.36c2.57-7.94-1.37-13.8-6-19.64-5-6.24-9.52-12.82-14.12-19.06.66,1.62,1.15,3.83,2.32,5.59,4.28,6.41,8.84,12.62,13.15,19a68.57,68.57,0,0,1,3.61,6.78l-.85.44ZM249.16,347.72c-7.4,10.72-17.5,19.53-22,32.26C236.11,370.4,245.43,361.06,249.16,347.72Zm7.15,305.74c-.83-15.45-1.3-30.27-9.69-43.23l-1.19.29ZM558.12,765c-11,11.1-22.33,21.7-38.94,26.28C531.69,792.11,552.52,778.39,558.12,765ZM229.78,380.5c15.26-8.2,26-24,22.74-33.18C248.84,361.19,239.6,371,229.78,380.5ZM452.35,171.29c4.46-4.3,6.42-9.55,6.83-15.52a19.52,19.52,0,0,0-2.44,4c-.71,1.32-1.48,2.61-2.23,3.91.28-6.7.28-6.7-2.18-10.28C447.29,160.25,447.71,166.12,452.35,171.29Zm16.42,76.94c6-12.67,17.6-22,21.2-35.14-5.15,6.9-10.67,14.36-16.26,21.77C470.7,238.83,468.62,243.1,468.77,248.23ZM400.35,274.9l-.79-1.14,12.77-10.45c-11.64,3.92-19.46,12.67-15.6,17.22l18.62-14.12-.72-1ZM269,688.18c1.47,8.68,18.91,24.37,27.18,24.11C287.43,703.3,275,699.36,269,688.18ZM316.15,239l1.13,1.31,26.85-25.2L343,213.83C334.12,222.29,323.46,228.79,316.15,239ZM517.81,788c8.61,1,27.26-9.44,29.43-17.88C538.53,777.79,529.72,785.36,517.81,788Zm-103-593.13L440.09,176C423.82,183.58,416.14,189.81,414.78,194.82Zm87.92-51.21c-8.73,9.45-21,10.68-32.32,14.12C482.63,156.48,495.16,155.9,502.7,143.61Zm-37.55,17c11.28,4,32.63-.88,37-8.26C490.8,159.47,478.36,161.73,465.15,160.65Zm20.18-26.15-23.69,16.23C469.88,149.07,479,142.67,485.33,134.5ZM458.83,174l-.55.6c3.9,2.46,7.94,4.73,11.67,7.43s7.43,6,11.13,9.07c-.64-.34-.63-1.71-1.3-2.48-2.25-2.58-4.43-5.43-7.23-7.27C468.23,178.53,463.43,176.43,458.83,174Zm28.1,89.74c1.08,3.65,4.46,5.46,8.07,6.71s6.64,2.67,8.9,5.79c.7,1,2.13,1.41,3.22,2.1l1.05-1.25c-1.42-1.55-2.56-3.58-4.3-4.57C498.35,269.41,492.62,266.67,486.93,263.76Zm-52.67-98.7c1.25-3.71,2.51-7.18,3.55-10.73a6.2,6.2,0,0,0-.32-3.07,3.17,3.17,0,0,0-1.93.16C432,153.69,431.28,161.66,434.26,165.06Zm49.94-20c6.62.37,15.67-6.16,14.69-10.6Zm-45.33,19.39c3.94-5.25,5.2-10.23,3.4-13.5C438.85,156.2,437.52,161.47,438.87,164.43Zm-46.33-9.69c2.52,4.62,12.64,8.67,16.53,7.8ZM425,237.28c-.65-6.54-3.39-12.05-9.24-17.12C419.15,226.51,422.06,231.9,425,237.28ZM483.15,150c5.2.95,14.2-3.34,15.73-7.14Zm-77.53,9,.78-1.43c-4.33-2-7.13-6.6-12-7.8L393.7,151ZM550.85,766.66l.79.9,13.67-10.06-1-1.34Zm-69-583.3c-.09-5.25-3.85-10.2-7.82-11Zm-34.51-30.13-4.41,9.23,1.25.55C445.73,159.94,449.08,157.64,447.32,153.23Z" transform="translate(-205.38 -134.44)" fill="#527712"/><path d="M688.39,381.77c2,3.1,4.65,6,6,9.36,2.74,6.76,1.78,13.79-.14,20.61-4.72,16.71-6.35,33.78-6.19,51.07,0,1.87-.22,3.74-.37,5.6,0,.32-.26.62-1.2.89V446.78l-1.34-.08-4.23,28.12h-.36V452.39l-.71-.24c-1.07,4.09-2.74,8.13-3.08,12.29a139.56,139.56,0,0,0,.05,18.63,19.35,19.35,0,0,0,2,7.68c4.51,8.73,9.7,17.12,13.85,26a37.24,37.24,0,0,1,3,13.81c.44,9.54.14,19.11.14,28.67l-1.56.07c-.23-5.12-.37-10.26-.74-15.38s-.56-10.49-1.59-15.58.49-10.82-5-15.47c1.2,16.92,6.46,32.59,3.51,49.16-.17-3.72-.34-7.16-.5-10.59-6.84,31.43-20.09,59.95-36.72,87.07l-1-.45,20.31-39.77-1.4-.92a75.31,75.31,0,0,0-5.22,6.24,136,136,0,0,0-15.24,31.07c-3.72,10.47-3.11,21-2.81,31.36a62.72,62.72,0,0,1-17,45.77,293,293,0,0,1-29.08,27.39c-4.51,3.75-10.87,5.27-17.19,8.16.49-1.47.5-1.81.65-1.9,10.73-6.6,15.89-17.63,22.17-27.75,6.17-9.93,11.92-20.14,18.43-29.83,2.79-4.15,7-7.37,10.67-10.92,5.34-5.17,9.34-11.09,9.83-18.69.14-2.3-.9-4.71-1.56-7-.57-2-1.92-3.9-2-5.88-.41-15,3.39-28.56,13.93-39.85,5.86-6.27,11.12-13.1,17-19.36s7.6-13.72,9.58-21.53a84.18,84.18,0,0,0,1.78-28.91c-.79-8.52,0-17.18-.1-25.78a10.35,10.35,0,0,0-1-4.61c-2.82-5.39-6-10.6-8.74-16a11.2,11.2,0,0,1-1-5.75c1-11.43,2.25-22.83,3.19-34.26,1.25-15.26,2.26-30.54,3.41-45.8.38-5.05-2.16-9.11-4.3-13.33-3.09-6.1-6.14-12.22-9.2-18.33l.94-.64c1.18,1.55,2.49,3,3.52,4.67,2.44,3.91,4.4,8.17,7.16,11.83,7.05,9.36,6.46,19.73,4.91,30.42-1.41,9.69-2.53,19.43-3.77,29.15l1.44.19,6.6-42-1-.14,1.2,11.63c4.1-8.54,6.36-17.27,4.35-26.42-.69-3.1-2.84-5.87-4.33-8.79Zm-92.16,357.9.81.92c1.71-1.46,3.84-2.63,5-4.43,3.88-5.76,7.61-11.63,11-17.68a120.55,120.55,0,0,1,13.36-18.72c6-7.07,10.54-15.36,15.63-23.18a13.68,13.68,0,0,0,1.11-3.38c-2.77,2-4.57,4.47-6.82,6.43a80.65,80.65,0,0,0-19.57,26.08c-3.09,6.37-6.59,12.56-10.25,18.62C603.38,729.6,599.7,734.57,596.23,739.67Zm19-16.66,1,.58a143.18,143.18,0,0,0,27.26-41.7c-6.54,7.84-12.38,14.83-18.2,21.82a12.7,12.7,0,0,0-1.52,2.13q-4,7.56-7.83,15.18A12.22,12.22,0,0,0,615.25,723ZM647,641.45c.87-3.21,1.53-6,2.4-8.79,1.57-4.95,2.67-10.17,5-14.74,4.78-9.31,10.62-18,18.84-24.78,1.24-1,1.67-3,2.48-4.59C662.07,595.44,641.62,631.18,647,641.45Z" transform="translate(-205.38 -134.44)"/><path d="M265.44,661.17l-1.19,4c-5.68-11.49-4.28-23.37-7.84-34.22l1.55-.37,5.79,21.51L265,652c0-2.5.2-5,0-7.5-1.19-12.69-5-24.42-13.45-34.23-1.28-1.49-3.7-2-5.54-3s-3.61-2-5.34-3.19c-3.82-2.54-7.68-5-11.35-7.76-3-2.26-6.4-4.42-8.56-7.39-4.83-6.64-9.07-13.71-13.38-20.71-1-1.64-2-3.74-1.89-5.55.83-11.67,1.74-23.35,3.13-35,.56-4.71,2.36-9.26,3.6-13.88l1,.15L210,533.72l1.55.28c3.92-17.35,9.83-34.26,10.2-52.39l1.3.13c-.33,5.66-.49,11.35-1.06,17s-1.54,11.16-1.84,16.81c6.13-10.07,9.2-20.65,7-32.6-1.51-8.38-6.55-15-9.85-22.48-2.15-4.9-4.74-9.64-6.45-14.69a46.6,46.6,0,0,1-1.95-12.86c.85,3.23,1.48,6.54,2.59,9.68s2.72,6.06,4.12,9.07l1.48-.57c-.65-3.7-1.3-7.4-2.12-12l2,2.77c.93-3.46-.63-6.59-2.82-6.06q-2.16-7.65-4.31-15.31a6,6,0,0,1-.46-1.81c.49-11.33-1.2-23,5.49-33.36,8.74-13.55,18.1-26.6,29.52-38.06a3.52,3.52,0,0,1,2.24-1,38.57,38.57,0,0,1-3.38,4.4c-11.52,11.16-18.58,25.19-25.57,39.28-3.15,6.35-7.35,12.42-6.22,20a38,38,0,0,0,3.11,11c4.82,9.84,10.79,19.23,10.27,30.82-.15,3.24.77,6.83-3,9-.37.21.08,2.45.62,3.51,2.18,4.32,4.91,8.39,6.74,12.84,2.5,6.06,2,12.39.53,18.72-.66,2.89-.31,6-1.08,8.88-2.7,10.11-5.5,20.2-8.61,30.19-3.63,11.68-4.27,23.51-.26,35,3.15,9,9.15,16.56,16.06,23.2A133.5,133.5,0,0,0,248,603.48c9,6.72,13.9,15.88,16.48,26.41,1.77,7.26,3.05,14.65,4.15,22,.41,2.75-.26,5.68-.62,8.5-.05.44-1.06.76-1.62,1.13Zm-30.71-65.94C224.09,583.44,214.82,572,212.79,556c-2.6,3.52-3.48,7.14-1.87,10.48,3.37,7,7.28,13.82,10.84,20.78C224.28,592.2,228.53,594.18,234.73,595.23Z" transform="translate(-205.38 -134.44)"/><path d="M688.47,381.69l-9.35-7.49-.68.36,6,12-.36.32a46.47,46.47,0,0,1-4.56-5c-3.69-5.4-7-11.05-10.84-16.36a17.55,17.55,0,0,0-5.7-4.67c-13-7.25-18.06-19.4-20.49-33.13a19.74,19.74,0,0,1-.19-7.06c3.11-16,.44-30.7-9.73-43.76a37.2,37.2,0,0,1-2.15-3.47,6,6,0,0,1,.38-1.1l9.63,13.72c4.74-7.51-13.28-34.5-22.15-39.41,2.6,6.9,5.84,13.12,11.89,17.65,3.52,2.64,5.37,6.55,6.52,11.4-1.08-.31-1.66-.29-1.91-.57-7.31-8-14.7-15.87-21.85-24-3.78-4.29-7-9-10.74-13.39a6.06,6.06,0,0,0-4.1-1.64c-8.22-.09-16.24-.91-23.43-5.35-8.51-5.26-15.36-12.39-19-21.52-4.09-10.1-11.34-17.57-20.86-20C519.2,185.4,505.7,176,489.56,173.71l4.57-1.31-10.55-2.89c.95,1.68,1.36,2.41,2.09,3.72l-4.78-1.35c1.58,2.49,2.75,4.36,3.93,6.22l-.93.78-8.72-9.75a23.8,23.8,0,0,1,17.78-.37,12.38,12.38,0,0,0,5.11.9c1.31-.09,2.55-1.14,4.8-2.25,11.15,5.05,24.61,8.68,35.82,16.92l-.41.91c-10.54-4-21-8.26-31.65-12-2.62-.91-5.82-.14-8.68.41,6.8,2.57,13.57,5.25,20.42,7.69,7.45,2.66,15.27,4.49,22.39,7.83,4.81,2.26,8.73,6.46,13,9.89,10.63,8.61,21.21,17.28,31.83,25.9a23,23,0,0,0,2.59,1.52c-.26-1.08-.41-1.7-.57-2.31l.57-.91c8.15,5,16.41,9.81,24.42,15a48,48,0,0,1,9.35,8c5.73,6.37,11.38,12.86,16.5,19.73,3.77,5.05,4,11.35,4.34,17.54a124.61,124.61,0,0,0,2,14.73c1.31,7.47,2.85,14.91,4.32,22.35.9,4.61,1.86,9.21,2.72,13.49-4.23-4.64-5.16-11-6.09-17.39l-.89.18c0,2.68-.5,5.48.1,8,1.51,6.29,3.47,12.47,5.34,18.67,2.68,8.91,9.7,14.08,17.08,18.51,8.07,4.84,14.28,11.56,20.62,18.23.3.32.31.91.46,1.38Zm-131-177.49-1,1c2.37,2.71,4.47,5.72,7.15,8.06,5.52,4.82,11.48,9.12,17,13.93,4.94,4.31,10.67,6.23,17,6.7.85.06,1.75-.62,2.62-.95l0-1.07c-2.74-1-5.78-3.25-8.17-2.7-3.41.79-5.22-.61-7.27-2.32-7.82-6.53-15.58-13.13-23.38-19.69C560.1,206.13,558.75,205.19,557.44,204.2ZM614,246.44l-1.28,1.13,6.37,6.71,1.09-1Z" transform="translate(-205.38 -134.44)"/><path d="M502.38,785.25H479.64a1.2,1.2,0,0,1-.72-.14c-5.43-4.91-11.81-.72-17.74-1.69s-12.22-.07-18.2,1c-5.19.91-10.05,3.6-15.22,4.75-12.49,2.78-25.15,4.14-37.76,1-3.6-.91-6.82-3.31-10-5.7,9.76,6.33,20.52,6,32.43,5.54l-21.48-4.19.3-1.6,12.14,2.52c-1.33-1.2-1.88-2.09-2.64-2.34-6.63-2.12-13.33-4-19.94-6.21-6.23-2.06-12.75-3.69-18.5-6.72-11.4-6-21.61-13.75-29.19-24.47-1.29-1.82-2.84-3.45-3.63-5.77L346.51,760l1.2-1.06L329.9,737.78l.77-.75,8.51,7.66c-.68-7-8.37-15.49-14.59-17a20.43,20.43,0,0,1-7.27-3.58,24.57,24.57,0,0,0-15-5.63c-14.27-.36-25.83-6-32.68-19.3-1.38-2.69-3.1-5.2-4.3-8.12,10.43,13.67,21.45,26.1,40.9,24.51A88.21,88.21,0,0,1,275.36,691c-8.22-10.31-15.89-21.15-17.88-34.8a82.35,82.35,0,0,0,3.95,8c2.31,3.65,5,7.08,7.48,10.61a24.92,24.92,0,0,1,2.92,4.33c4.65,11.15,13,19,22.63,25.77,4.07,2.86,8.4,5.34,12.52,8.14,2.37,1.61,4.42,3.72,6.84,5.24,6.31,4,12.82,7.62,19.13,11.58,7.85,4.92,11.94,12.87,16.14,20.68,2,3.61,4.15,7.12,5.78,10.87,1.36,3.12,3.67,4.76,6.52,6.24a110.24,110.24,0,0,0,26.26,9.51c8.78,2,17.13,6,25.63,9.18,6.67,2.5,13.06,2.79,19.87-.18a88,88,0,0,1,30-7c12.34-.78,24,1.72,35.94,3.75a18.18,18.18,0,0,1,3.63,1.47Z" transform="translate(-205.38 -134.44)"/><path d="M271.62,277.11c4.24-8.59,10.66-15.54,17.71-22.49l-2.92-1c.14-.26.2-.59.34-.63,11-2.51,16.53-11.91,23.66-19.15,6.32-6.42,12.61-12.71,20.33-17.53,6.32-4,12.28-8.48,18.32-12.86a35.47,35.47,0,0,0,4.33-4.08c6.85-7,13.4-14.43,20.66-21,2.73-2.49,7-3.58,10.75-4.6A94,94,0,0,1,399.87,171a14.87,14.87,0,0,1,8,1.32c3.95,2,7.52,1.16,11.2-.06,3.12-1,6.16-2.34,9.23-3.53l.49.8c-3.4,2.34-7.22,4.26-10.06,7.13s-4.4,6.48-6.54,9.77l-1.2-.35,2.4-9.57c-1.82,0-3.84-.49-5.49.08-10,3.4-20.28,6.23-29.68,10.86-8.1,4-15.13,10.18-22.67,15.35-5.73,3.93-11.23,8.3-17.33,11.56-6.94,3.71-11.75,9.44-17,14.9q-8.49,8.87-17.61,17.11c-1.94,1.76-5.21,2.07-7.09,3.86-4.29,4.08-8.19,8.59-12.09,13-4.12,4.72-8.06,9.59-12.07,14.39ZM362,195.51c5.87-4.74,11.72-9.53,17.63-14.22,4-3.14,8.32-6.56,13.52-4.28,4,1.74,6.34-.21,9.12-2.15l-7,1.46.88-1.94C379.38,172.43,370.31,183.38,362,195.51Z" transform="translate(-205.38 -134.44)"/><path d="M581.17,747.82l-18.08,7.25a14.42,14.42,0,0,0-3.08,1.34c-7.65,5.52-15.91,10.1-22.58,17.08a42,42,0,0,1-13.79,9.22c-8.66,3.65-17.75,6.3-26.74,9.13-1.48.46-3.34-.32-5-.48-2-.18-3.92-.31-5.88-.49-6.05-.54-12.11-1.07-18.15-1.67a33.75,33.75,0,0,1-7.82-1.55c2.32,0,4.64-.1,6.95,0,9,.48,17.91,1.58,26.84,1.43,17.35-.29,31.88-7.39,44-19.71,7.2-7.33,14.88-14,25.07-17,4.65-1.38,9.15-3.27,13.75-4.82a29.78,29.78,0,0,1,4.25-.79Z" transform="translate(-205.38 -134.44)"/><path d="M396.32,146.61c.33-.58.75-1.17,1-1.82,2.61-5.78,4.69-6.78,10.37-4.28,7.23,3.19,14.33,6.67,21.49,10l-.48,1.31L410,148.13l-.27.59,11.15,3.94-.09.87-12.22-2.06-.37.75,9.82,4C414,158.72,402.39,154,396.32,146.61Z" transform="translate(-205.38 -134.44)"/><path d="M269.6,270.84c-7.05,20.17-14.06,39.56-17,60C248.33,314.9,256.05,286.83,269.6,270.84Z" transform="translate(-205.38 -134.44)"/><path d="M247.62,337.81c-.29-1.42-.67-2.82-.85-4.25-.88-7-1.67-14.1-2.55-21.14-1.24-9.79,1.57-18.63,7.11-26.45,5.75-8.11,12.12-15.78,18.35-23.54a8.77,8.77,0,0,1,4.84-2.74,18.69,18.69,0,0,1-1.48,1.6c-11.37,9.7-18.26,22.53-24.2,35.8-1.7,3.82-1.26,8.77-1.17,13.19.19,8.83.82,17.65,1.24,26.48,0,.3-.27.62-.42.93Z" transform="translate(-205.38 -134.44)"/><path d="M487.34,183.72a47.78,47.78,0,0,1-6.13,20.15c-3.38,6.07-6.43,12.32-9.48,18.57a5.42,5.42,0,0,0,.06,4.2l14.66-23.32,1,.54-18.1,30.57c-1.55-4.22-1.85-8.48-.35-12.34,2.23-5.75,5.29-11.18,8-16.74,2.89-5.9,5.8-11.79,8.67-17.69C486.27,186.37,486.78,185,487.34,183.72Z" transform="translate(-205.38 -134.44)"/><path d="M409.45,190.6a17,17,0,0,1,.72,3.45c0,11.33,5.43,20.15,12.79,28.19,4.58,5,8.3,10.63,9.85,17.37a14.89,14.89,0,0,1-.1,6.76c-.35-.39-.92-.74-1-1.19-2.48-12.34-10.09-21.73-17.75-31.12-5.58-6.85-6.94-14.77-5.75-23.21Z" transform="translate(-205.38 -134.44)"/><path d="M472.31,255.66c.46-2.82.24-6,1.51-8.36,2.74-5.11,6.24-9.79,9.44-14.65l12.14-18.48c-1.56,4.5-2.54,9.25-4.79,13.29-3.13,5.63-7.38,10.61-10.84,16.07-2.45,3.85-4.38,8-6.54,12.06Z" transform="translate(-205.38 -134.44)"/><path d="M429.16,254.52c0,16-15.73,34-28,31.37C414.55,278.41,425,269.17,429.16,254.52Z" transform="translate(-205.38 -134.44)"/><path d="M406.41,230.5,423,246.23l.85-.44a68.57,68.57,0,0,0-3.61-6.78c-4.31-6.39-8.87-12.6-13.15-19-1.17-1.76-1.66-4-2.32-5.59,4.6,6.24,9.15,12.82,14.12,19.06,4.64,5.84,8.58,11.7,6,19.64l-18.72-22.36Z" transform="translate(-205.38 -134.44)"/><path d="M249.16,347.72c-3.73,13.34-13,22.68-22,32.26C231.66,367.25,241.76,358.44,249.16,347.72Z" transform="translate(-205.38 -134.44)"/><path d="M256.31,653.46l-10.88-42.94,1.19-.29C255,623.19,255.48,638,256.31,653.46Z" transform="translate(-205.38 -134.44)"/><path d="M558.12,765c-5.6,13.4-26.43,27.12-38.94,26.28C535.79,786.69,547.1,776.09,558.12,765Z" transform="translate(-205.38 -134.44)"/><path d="M229.78,380.5c9.82-9.46,19.06-19.31,22.74-33.18C255.8,356.51,245,372.3,229.78,380.5Z" transform="translate(-205.38 -134.44)"/><path d="M452.35,171.29c-4.64-5.17-5.06-11,0-17.91,2.46,3.58,2.46,3.58,2.18,10.28.75-1.3,1.52-2.59,2.23-3.91a19.52,19.52,0,0,1,2.44-4C458.77,161.74,456.81,167,452.35,171.29Z" transform="translate(-205.38 -134.44)"/><path d="M468.77,248.23c-.15-5.13,1.93-9.4,4.94-13.37,5.59-7.41,11.11-14.87,16.26-21.77C486.37,226.2,474.8,235.56,468.77,248.23Z" transform="translate(-205.38 -134.44)"/><path d="M400.35,274.9l14.28-9.46.72,1-18.62,14.12c-3.86-4.55,4-13.3,15.6-17.22l-12.77,10.45Z" transform="translate(-205.38 -134.44)"/><path d="M269,688.18c5.92,11.18,18.39,15.12,27.18,24.11C288,712.55,270.51,696.86,269,688.18Z" transform="translate(-205.38 -134.44)"/><path d="M316.15,239c7.31-10.16,18-16.66,26.83-25.12l1.15,1.23-26.85,25.2Z" transform="translate(-205.38 -134.44)"/><path d="M517.81,788c11.91-2.59,20.72-10.16,29.43-17.88C545.07,778.51,526.42,789,517.81,788Z" transform="translate(-205.38 -134.44)"/><path d="M414.78,194.82c1.36-5,9-11.24,25.31-18.8Z" transform="translate(-205.38 -134.44)"/><path d="M502.7,143.61c-7.54,12.29-20.07,12.87-32.32,14.12C481.7,154.29,494,153.06,502.7,143.61Z" transform="translate(-205.38 -134.44)"/><path d="M465.15,160.65c13.21,1.08,25.65-1.18,37-8.26C497.78,159.77,476.43,164.61,465.15,160.65Z" transform="translate(-205.38 -134.44)"/><path d="M482,264.72l7.44,12c-4.67-1.8-6.88-6.09-9.58-10l-1.38,1.62c-2.78-2.39-2.87-10.93-.39-14.13-.12,2.77-.25,5.65-.38,8.53l.69.11,1.08-2.38,2.62,4.33Z" transform="translate(-205.38 -134.44)"/><path d="M485.33,134.5c-6.3,8.17-15.45,14.57-23.69,16.23Z" transform="translate(-205.38 -134.44)"/><path d="M458.83,174c4.6,2.41,9.4,4.51,13.72,7.35,2.8,1.84,5,4.69,7.23,7.27.67.77.66,2.14,1.3,2.48-3.7-3-7.26-6.27-11.13-9.07s-7.77-5-11.67-7.43Z" transform="translate(-205.38 -134.44)"/><path d="M486.93,263.76c5.69,2.91,11.42,5.65,16.94,8.78,1.74,1,2.88,3,4.3,4.57l-1.05,1.25c-1.09-.69-2.52-1.13-3.22-2.1-2.26-3.12-5.39-4.58-8.9-5.79S488,267.41,486.93,263.76Z" transform="translate(-205.38 -134.44)"/><path d="M434.26,165.06c-3-3.4-2.27-11.37,1.3-13.64a3.17,3.17,0,0,1,1.93-.16,6.2,6.2,0,0,1,.32,3.07C436.77,157.88,435.51,161.35,434.26,165.06Z" transform="translate(-205.38 -134.44)"/><path d="M482.11,264.83c.25-1.06.49-2.12,1-4.27,2.59,8.41,8.74,11.72,15.15,14.85,1.9.92,3.48,2.48,5.41,3.89-.79.5-1.09.77-1.17.72-5.4-3.47-10.86-6.85-16.12-10.52-1.72-1.2-2.92-3.16-4.36-4.78Z" transform="translate(-205.38 -134.44)"/><path d="M484.2,145l14.69-10.6C499.87,138.88,490.82,145.41,484.2,145Z" transform="translate(-205.38 -134.44)"/><path d="M438.87,164.43c-1.35-3,0-8.23,3.4-13.5C444.07,154.2,442.81,159.18,438.87,164.43Z" transform="translate(-205.38 -134.44)"/><path d="M392.54,154.74l16.53,7.8C405.18,163.41,395.06,159.36,392.54,154.74Z" transform="translate(-205.38 -134.44)"/><path d="M425,237.28c-2.91-5.38-5.82-10.77-9.24-17.12C421.58,225.23,424.32,230.74,425,237.28Z" transform="translate(-205.38 -134.44)"/><path d="M483.15,150l15.73-7.14C497.35,146.69,488.35,151,483.15,150Z" transform="translate(-205.38 -134.44)"/><path d="M405.62,159.07,393.7,151l.73-1.14c4.84,1.2,7.64,5.76,12,7.8Z" transform="translate(-205.38 -134.44)"/><path d="M550.85,766.66l13.44-10.5,1,1.34-13.67,10.06Z" transform="translate(-205.38 -134.44)"/><path d="M481.83,183.36l-7.82-11C478,173.16,481.74,178.11,481.83,183.36Z" transform="translate(-205.38 -134.44)"/><path d="M425,178l2.7.22-12.44,11.38-.54-.44c2.43-2.58,4.87-5.16,7.28-7.76,1.06-1.14,2.07-2.33,3.1-3.5Z" transform="translate(-205.38 -134.44)"/><path d="M447.32,153.23c1.76,4.41-1.59,6.71-3.16,9.78l-1.25-.55Z" transform="translate(-205.38 -134.44)"/><path d="M425.09,177.92l-6.88,3.14-.39-.67,8.75-5.49.52.55L425,178Z" transform="translate(-205.38 -134.44)"/><path d="M596.23,739.67c3.47-5.1,7.15-10.07,10.34-15.34,3.66-6.06,7.16-12.25,10.25-18.62a80.65,80.65,0,0,1,19.57-26.08c2.25-2,4.05-4.45,6.82-6.43a13.68,13.68,0,0,1-1.11,3.38c-5.09,7.82-9.64,16.11-15.63,23.18a120.55,120.55,0,0,0-13.36,18.72c-3.42,6-7.15,11.92-11,17.68-1.2,1.8-3.33,3-5,4.43Z" transform="translate(-205.38 -134.44)" fill="#fff"/><path d="M615.25,723a12.22,12.22,0,0,1,.66-2q3.87-7.62,7.83-15.18a12.7,12.7,0,0,1,1.52-2.13c5.82-7,11.66-14,18.2-21.82a143.18,143.18,0,0,1-27.26,41.7Z" transform="translate(-205.38 -134.44)" fill="#fff"/><path d="M647,641.45c-5.38-10.27,15.07-46,28.73-52.9-.81,1.55-1.24,3.56-2.48,4.59-8.22,6.82-14.06,15.47-18.84,24.78-2.34,4.57-3.44,9.79-5,14.74C648.53,635.42,647.87,638.24,647,641.45Z" transform="translate(-205.38 -134.44)" fill="#fff"/><path d="M234.73,595.23c-6.2-1.05-10.45-3-13-7.94-3.56-7-7.47-13.74-10.84-20.78-1.61-3.34-.73-7,1.87-10.48C214.82,572,224.09,583.44,234.73,595.23Z" transform="translate(-205.38 -134.44)" fill="#fff"/><path d="M557.44,204.2c1.31,1,2.66,1.93,3.92,3,7.8,6.56,15.56,13.16,23.38,19.69,2,1.71,3.86,3.11,7.27,2.32,2.39-.55,5.43,1.7,8.17,2.7l0,1.07c-.87.33-1.77,1-2.62.95-6.34-.47-12.07-2.39-17-6.7-5.53-4.81-11.49-9.11-17-13.93-2.68-2.34-4.78-5.35-7.15-8.06Z" transform="translate(-205.38 -134.44)" fill="#fff"/><path d="M614,246.44l6.18,6.8-1.09,1-6.37-6.71Z" transform="translate(-205.38 -134.44)" fill="#fff"/><path d="M362,195.51c8.28-12.13,17.35-23.08,34.17-21.13l-.88,1.94,7-1.46c-2.78,1.94-5.14,3.89-9.12,2.15-5.2-2.28-9.56,1.14-13.52,4.28C373.75,186,367.9,190.77,362,195.51Z" transform="translate(-205.38 -134.44)" fill="#fff"/></svg>