<svg xmlns="http://www.w3.org/2000/svg" width="736" height="895" viewBox="0 0 736 895">
  <path d="M 0.08 676.25 C0.17,461.39 0.20,457.66 2.00,466.50 C5.19,482.17 11.23,495.58 19.56,505.50 C23.58,510.29 23.79,510.87 24.46,519.21 L 25.17 527.92 L 22.34 528.53 C17.67,529.53 15.43,530.68 11.62,534.03 C7.28,537.84 7.11,539.87 10.76,544.22 C12.61,546.42 13.45,548.48 13.32,550.50 C12.73,559.55 16.18,563.47 25.64,564.48 L 32.24 565.18 L 31.67 573.84 C31.36,578.60 30.39,586.55 29.52,591.50 C27.00,605.78 26.66,612.23 27.94,620.98 C30.74,640.14 39.10,656.08 50.50,664.01 C52.70,665.54 55.48,667.62 56.68,668.64 C57.88,669.66 61.63,672.75 65.02,675.50 C68.42,678.25 74.02,683.11 77.48,686.30 C83.65,691.98 83.77,692.21 84.20,698.05 C84.55,702.94 85.15,704.55 87.56,707.07 C89.18,708.75 91.59,710.66 92.93,711.31 C96.65,713.14 96.43,714.45 91.89,717.45 C81.46,724.36 80.05,731.80 88.68,734.43 C90.02,734.83 91.11,736.21 91.50,737.99 C92.30,741.66 97.40,746.71 101.14,747.53 C102.71,747.88 105.57,747.64 107.50,747.00 C110.81,745.91 111.14,746.01 113.59,748.92 C115.01,750.62 117.05,752.00 118.12,752.00 C119.19,752.00 120.22,752.56 120.41,753.25 C130.14,788.77 148.45,815.00 171.39,826.32 C183.16,832.12 190.32,833.90 205.00,834.67 C213.27,835.10 217.54,835.80 220.21,837.14 C222.37,838.22 226.04,839.00 229.00,839.00 C232.96,839.00 233.85,839.28 233.03,840.25 C225.16,849.61 223.47,854.34 226.98,857.18 C228.20,858.17 231.06,859.47 233.35,860.08 C235.63,860.69 238.18,861.59 239.00,862.08 C242.15,863.95 247.31,866.00 248.87,866.00 C251.76,865.99 256.94,862.13 258.24,859.02 L 259.50 855.99 L 264.00 859.01 C266.48,860.67 270.28,862.32 272.45,862.67 C275.36,863.15 277.98,864.79 282.45,868.92 C286.60,872.77 290.70,875.41 295.50,877.35 C299.35,878.90 303.63,880.77 305.01,881.50 C310.87,884.61 333.00,891.21 342.36,892.64 C361.03,895.50 376.89,893.13 396.34,884.56 C410.49,878.34 433.71,874.00 452.91,874.00 C458.14,874.00 458.89,873.71 462.05,870.42 C466.97,865.30 468.60,864.60 471.24,866.46 C474.75,868.91 476.95,868.36 478.50,864.64 C479.74,861.69 479.70,860.64 478.21,855.97 C476.93,851.98 476.81,850.56 477.72,850.26 C478.39,850.04 480.45,848.83 482.30,847.57 C485.35,845.50 487.16,845.24 502.08,844.72 C511.41,844.40 523.88,843.24 530.96,842.04 C541.74,840.22 544.50,839.33 551.46,835.48 C555.88,833.03 560.85,829.77 562.50,828.22 C567.24,823.80 575.31,813.96 578.70,808.50 C585.07,798.24 595.78,774.22 597.44,766.50 C597.85,764.57 599.49,762.49 602.06,760.67 C604.25,759.11 607.25,756.33 608.72,754.48 L 611.40 751.13 L 617.55 754.56 C626.45,759.54 627.97,759.27 634.03,751.55 C636.82,748.00 639.96,744.83 641.01,744.50 C642.05,744.17 644.06,742.53 645.46,740.87 C647.44,738.52 648.00,736.74 648.00,732.86 C648.00,728.25 647.68,727.59 643.57,723.85 L 639.14 719.82 L 641.07 716.66 C642.37,714.53 642.99,711.66 643.00,707.84 L 643.00 702.18 L 651.25 697.44 C684.74,678.20 700.51,656.72 705.10,624.08 C706.45,614.43 705.76,599.60 703.43,588.30 C701.98,581.30 702.00,580.45 703.66,575.83 C705.86,569.72 707.03,568.71 712.76,568.03 C718.56,567.35 721.10,564.19 721.76,556.82 C722.04,553.69 723.63,548.58 725.62,544.40 C727.48,540.49 729.00,536.41 729.00,535.34 C729.00,532.47 723.33,524.03 721.27,523.84 C720.30,523.75 717.92,523.64 716.00,523.59 L 712.50 523.50 L 712.20 516.67 C711.92,510.15 712.11,509.49 716.38,502.17 C718.85,497.95 721.01,493.83 721.18,493.00 C721.36,492.17 721.79,491.27 722.15,491.00 C723.59,489.89 729.39,475.98 731.74,468.00 C734.06,460.10 734.20,458.47 733.67,445.00 C733.33,436.34 732.43,428.09 731.44,424.50 C730.53,421.20 729.38,416.83 728.89,414.78 C728.40,412.74 726.92,408.69 725.59,405.78 C719.49,392.46 714.91,383.13 712.42,378.96 C709.98,374.87 709.79,373.85 710.44,368.62 C711.08,363.50 711.53,362.61 714.23,361.16 C719.09,358.53 723.65,354.26 724.95,351.11 C725.92,348.78 725.87,347.37 724.68,343.86 C723.87,341.46 722.45,335.45 721.52,330.50 C720.41,324.53 719.19,320.90 717.91,319.70 C715.54,317.49 708.70,315.00 705.01,315.00 C702.56,315.00 702.18,314.54 701.52,310.75 C700.49,304.83 700.52,303.07 701.90,289.77 C703.91,270.29 700.51,243.92 694.43,231.87 C687.64,218.42 657.24,188.00 650.58,188.00 C649.28,188.00 647.95,187.32 647.64,186.49 C647.32,185.66 645.95,184.48 644.60,183.86 C642.76,183.03 641.83,181.45 640.94,177.62 C640.28,174.80 639.05,171.71 638.21,170.74 C636.82,169.14 636.86,168.77 638.65,166.74 C644.23,160.43 645.91,154.10 643.51,148.38 C641.92,144.57 633.18,135.16 629.39,133.18 C627.29,132.08 620.41,132.61 618.50,134.01 C617.95,134.42 615.36,135.06 612.75,135.44 C610.14,135.81 608.00,136.57 608.00,137.12 C608.00,139.44 606.22,136.77 605.73,133.70 C605.12,129.96 601.45,124.10 597.12,119.97 C595.26,118.19 593.81,115.34 592.99,111.86 C591.77,106.69 587.51,97.03 586.00,96.00 C585.60,95.72 583.69,93.03 581.76,90.00 C577.81,83.80 571.96,77.04 561.00,66.03 C554.70,59.70 552.46,58.13 547.00,56.24 C533.29,51.49 510.68,48.03 493.22,48.01 C487.31,48.00 486.76,47.79 483.91,44.55 C482.24,42.65 480.06,40.84 479.07,40.52 C477.85,40.14 477.08,38.61 476.71,35.90 C475.57,27.40 467.93,20.36 458.29,18.93 C455.10,18.46 451.05,17.79 449.28,17.43 C446.58,16.89 445.59,17.26 443.11,19.73 C440.32,22.53 440.19,23.01 440.72,28.84 C441.03,32.23 441.10,35.00 440.88,35.00 C440.66,35.00 437.60,32.30 434.08,29.00 C427.48,22.81 424.31,21.69 419.99,24.01 C418.47,24.82 417.05,24.23 412.64,20.93 C401.14,12.33 390.96,7.62 376.00,3.96 C369.67,2.42 363.38,0.95 362.00,0.71 C360.62,0.47 444.21,0.21 547.75,0.14 L 736.00 0.00 L 736.00 447.50 L 736.00 895.00 L 368.00 895.00 L 0.00 895.00 L 0.08 676.25 ZM 371.00 782.79 C369.62,782.20 363.55,781.72 357.50,781.75 C347.62,781.78 346.26,781.56 344.16,779.64 C342.14,777.78 340.62,777.50 332.66,777.48 C327.46,777.46 322.58,776.93 321.38,776.26 C320.21,775.60 317.28,774.75 314.88,774.37 C311.52,773.85 309.54,772.69 306.39,769.41 C302.20,765.07 297.23,763.18 292.94,764.31 C291.56,764.67 289.95,763.91 287.97,761.97 C285.12,759.18 279.64,757.02 275.42,757.01 C274.28,757.00 272.28,755.86 270.97,754.47 C269.66,753.08 266.10,751.22 263.05,750.33 C260.00,749.45 256.26,747.69 254.75,746.43 C253.24,745.16 250.43,743.56 248.50,742.86 C246.58,742.17 245.00,741.20 245.00,740.72 C245.00,739.06 237.75,732.79 233.77,731.01 C231.59,730.03 229.28,728.20 228.65,726.93 C228.02,725.67 225.33,723.56 222.67,722.23 C220.01,720.91 216.24,718.05 214.28,715.89 C212.32,713.72 209.40,711.17 207.80,710.22 C206.19,709.28 204.05,706.64 203.05,704.37 C201.89,701.76 199.57,699.11 196.71,697.14 C194.23,695.44 190.83,691.82 189.16,689.10 C187.49,686.39 184.86,683.56 183.31,682.82 C181.59,681.99 179.48,679.45 177.85,676.24 C176.40,673.36 175.48,671.00 175.81,671.00 C176.14,671.00 174.79,669.31 172.82,667.25 C170.84,665.19 168.34,661.47 167.26,659.00 C166.17,656.53 163.53,652.52 161.39,650.10 C159.25,647.68 156.73,643.69 155.80,641.23 C154.86,638.76 153.00,635.12 151.65,633.12 C150.30,631.13 148.49,626.99 147.62,623.93 C146.76,620.86 145.17,617.56 144.10,616.59 C143.02,615.62 141.83,612.95 141.45,610.66 C140.66,605.90 138.84,601.94 136.57,600.05 C135.48,599.16 135.00,597.01 135.00,593.11 C135.00,588.84 134.43,586.62 132.65,583.98 C131.36,582.07 130.05,578.60 129.75,576.27 C129.44,573.94 128.23,570.04 127.05,567.61 C125.70,564.81 125.14,562.29 125.53,560.73 C126.37,557.38 124.45,550.72 122.00,548.50 C120.42,547.07 120.00,545.42 120.00,540.66 C120.00,536.77 119.31,533.19 118.07,530.57 C115.97,526.16 114.89,516.94 115.04,504.81 C115.09,500.36 114.60,496.14 113.88,494.81 C112.84,492.90 111.91,479.59 112.25,471.50 C112.34,469.31 112.19,458.33 112.02,454.75 C111.96,453.51 112.18,448.00 112.50,442.50 C113.03,433.53 113.11,430.69 113.05,422.75 C112.99,414.93 114.12,400.79 115.12,396.85 C115.98,393.42 116.01,391.07 115.21,387.93 C114.27,384.22 114.38,383.34 116.04,381.23 C118.52,378.07 119.40,373.18 118.10,369.78 C117.27,367.57 117.55,366.04 119.64,361.47 C121.28,357.89 122.01,354.90 121.67,353.18 C121.34,351.54 121.93,348.81 123.19,346.16 C124.33,343.78 125.34,339.95 125.44,337.66 C125.55,335.16 126.74,331.58 128.43,328.70 C130.74,324.77 131.16,323.09 130.75,319.43 C130.47,316.98 130.68,314.70 131.23,314.36 C133.25,313.11 135.96,305.33 135.98,300.71 C135.99,297.31 136.59,295.29 138.02,293.75 C140.37,291.23 142.35,284.69 141.54,282.13 C141.18,281.00 141.93,279.49 143.62,277.93 C146.64,275.15 149.00,270.19 149.00,266.64 C149.00,265.31 149.60,263.98 150.34,263.70 C152.14,263.01 155.00,256.83 155.00,253.62 C155.00,251.80 155.84,250.62 157.88,249.56 C163.07,246.88 166.00,242.40 166.00,237.13 C166.00,232.86 166.43,232.00 170.53,227.97 C173.09,225.46 175.55,221.89 176.19,219.76 C176.92,217.32 177.92,216.00 179.02,216.00 C181.81,216.00 185.65,212.32 187.38,208.02 C188.26,205.81 189.63,204.00 190.42,204.00 C192.97,204.00 197.76,199.09 199.65,194.54 C200.66,192.10 202.40,189.68 203.52,189.17 C207.53,187.35 212.00,182.78 212.80,179.70 C213.42,177.31 214.31,176.41 216.56,175.95 C221.21,175.00 223.47,173.40 225.49,169.64 C227.00,166.85 228.30,165.91 231.94,165.00 C236.97,163.74 241.00,160.59 241.00,157.93 C241.00,156.12 242.92,155.00 246.04,155.00 C247.07,155.00 249.79,153.21 252.09,151.03 C255.70,147.59 256.83,147.08 260.42,147.24 C264.82,147.43 269.46,144.94 270.52,141.83 C270.86,140.81 272.71,139.89 275.27,139.45 C280.64,138.55 283.49,136.65 285.02,132.95 C286.21,130.08 286.44,130.00 293.17,130.00 C300.13,130.00 304.41,128.62 306.95,125.57 C307.77,124.58 309.87,124.00 312.67,124.00 C315.11,124.00 318.48,123.29 320.16,122.42 C322.47,121.23 324.66,121.00 328.96,121.49 C335.72,122.28 341.43,120.39 342.50,116.99 C343.06,115.24 343.72,114.92 345.85,115.39 C347.31,115.72 351.95,116.52 356.16,117.18 C362.95,118.25 364.27,118.18 367.70,116.64 C371.33,115.00 372.04,114.99 379.52,116.54 C383.90,117.44 389.14,117.91 391.18,117.59 C393.21,117.26 395.14,117.42 395.46,117.94 C395.78,118.46 398.10,119.19 400.61,119.57 C404.11,120.09 405.54,119.89 406.75,118.68 C408.05,117.38 408.10,116.83 407.04,115.55 C404.44,112.41 407.39,114.14 413.15,119.13 C417.92,123.26 419.95,124.35 423.64,124.77 C428.20,125.28 428.22,125.28 426.99,122.89 C426.05,121.07 426.69,121.39 429.68,124.26 C435.01,129.37 444.65,132.18 443.36,128.25 C443.05,127.29 443.97,127.93 445.41,129.68 C448.84,133.84 454.05,137.00 457.48,137.00 C459.96,137.00 460.15,136.74 459.56,134.25 C458.95,131.69 459.17,131.79 462.70,135.73 C467.46,141.04 474.00,143.83 474.00,140.56 C474.00,139.76 476.62,141.79 479.82,145.06 C483.35,148.67 486.48,151.00 487.79,151.00 C489.38,151.00 489.79,150.55 489.38,149.25 C488.69,147.11 492.02,150.86 495.49,156.13 C497.57,159.30 503.49,164.00 505.40,164.00 C505.77,164.00 505.57,162.99 504.97,161.75 L 503.87 159.50 L 505.68 161.63 C506.68,162.80 509.24,165.84 511.37,168.38 C513.80,171.28 516.05,173.00 517.42,173.00 C518.93,173.00 520.51,174.44 522.54,177.65 C524.29,180.42 526.78,182.84 528.69,183.64 C530.86,184.55 533.35,187.23 536.43,191.99 C540.57,198.40 542.02,199.52 545.59,199.11 C546.19,199.04 547.27,200.78 547.99,202.96 C548.71,205.15 551.49,209.39 554.16,212.39 C556.89,215.46 559.30,219.27 559.67,221.11 C560.06,223.05 562.10,226.15 564.70,228.75 C567.26,231.32 569.33,234.45 569.70,236.31 C570.04,238.07 571.38,241.18 572.66,243.23 C573.95,245.28 575.00,247.21 575.00,247.52 C575.00,247.83 575.88,249.30 576.97,250.79 C578.05,252.28 579.41,255.71 580.01,258.41 C580.63,261.27 582.32,264.74 584.04,266.70 C585.67,268.55 587.00,271.18 587.00,272.53 C587.00,273.89 587.38,275.00 587.85,275.00 C588.31,275.00 588.74,276.40 588.78,278.10 C588.83,279.81 590.04,282.90 591.48,284.97 C592.91,287.03 594.35,290.36 594.67,292.36 C595.00,294.36 595.68,296.00 596.19,296.00 C596.70,296.00 596.84,296.45 596.49,297.01 C596.15,297.57 597.20,299.36 598.84,300.99 C601.05,303.20 601.99,305.30 602.52,309.23 C602.92,312.13 603.63,314.75 604.10,315.05 C604.57,315.35 605.21,319.62 605.53,324.55 C606.07,332.98 607.49,340.24 609.05,342.50 C609.43,343.05 610.06,346.40 610.44,349.95 C610.84,353.56 611.94,357.52 612.97,358.95 C614.35,360.90 614.80,363.44 614.84,369.55 C614.87,373.97 615.37,378.83 615.95,380.36 C616.53,381.88 617.00,385.82 617.00,389.10 C617.00,393.18 617.66,396.37 619.08,399.15 C620.76,402.46 620.95,403.71 620.07,405.86 C618.44,409.87 619.01,418.96 621.16,423.09 C622.70,426.04 622.85,427.26 621.97,429.57 C621.38,431.14 621.15,433.46 621.47,434.73 C621.79,436.00 621.59,437.89 621.04,438.93 C620.32,440.28 620.45,442.02 621.50,445.01 C622.81,448.70 622.81,449.44 621.49,451.32 C619.76,453.78 619.58,458.05 621.00,462.98 C621.76,465.65 621.62,467.44 620.38,470.68 C619.33,473.42 619.02,475.90 619.51,477.71 C620.79,482.50 620.41,486.33 618.17,491.33 C615.74,496.75 615.51,499.30 617.07,503.76 C617.95,506.29 617.75,507.65 615.96,511.59 C614.26,515.32 613.88,517.67 614.22,522.39 C614.59,527.49 614.30,528.94 612.33,531.85 C610.45,534.62 610.00,536.61 610.00,542.14 C610.00,545.91 609.63,549.00 609.18,549.00 C607.50,549.00 604.94,559.75 605.61,563.98 C606.18,567.55 605.97,568.34 604.03,569.69 C601.22,571.66 599.00,576.85 599.00,581.46 C599.00,583.96 597.96,586.34 595.44,589.65 C592.18,593.92 591.89,594.83 592.11,600.19 C592.32,605.25 592.05,606.28 590.17,607.59 C587.10,609.74 584.00,616.65 584.00,621.34 C584.00,623.97 583.20,626.36 581.65,628.41 C577.98,633.24 576.00,637.63 576.00,640.95 C576.00,642.94 575.50,644.00 574.56,644.00 C573.76,644.00 571.85,645.09 570.31,646.41 C567.86,648.52 567.50,649.54 567.50,654.38 C567.50,659.78 567.34,660.10 561.86,665.72 C558.02,669.67 556.02,672.61 555.58,675.00 C555.12,677.45 553.97,679.10 551.75,680.50 C549.92,681.65 547.51,684.69 546.04,687.69 C544.34,691.17 542.87,692.90 541.60,692.94 C539.04,693.02 532.47,700.07 530.90,704.41 C530.07,706.70 528.61,708.33 526.68,709.13 C522.06,711.05 518.24,714.75 516.99,718.53 C516.20,720.93 515.24,722.00 513.87,722.00 C511.06,722.00 504.10,726.17 503.43,728.27 C503.11,729.24 501.42,730.63 499.68,731.36 C497.93,732.10 494.75,734.63 492.62,736.99 C489.97,739.93 487.76,741.41 485.63,741.65 C481.85,742.09 476.81,745.56 473.33,750.11 C471.90,751.97 471.02,752.68 471.37,751.67 C471.92,750.06 471.61,749.93 468.78,750.55 C464.75,751.43 461.91,752.99 460.21,755.25 C459.47,756.23 457.58,757.00 455.91,757.00 C451.73,757.00 446.87,759.23 442.36,763.22 C439.85,765.44 436.68,767.04 433.26,767.79 C430.38,768.43 426.11,770.19 423.76,771.69 C420.23,773.96 418.31,774.44 412.50,774.53 C407.99,774.60 404.43,775.24 402.50,776.31 C400.61,777.37 397.23,777.99 393.39,777.99 C388.53,778.00 386.14,778.61 381.66,781.00 C375.54,784.27 374.73,784.40 371.00,782.79 ZM 0.08 217.75 L 0.00 0.00 L 171.75 0.04 L 343.50 0.08 L 333.97 3.32 C328.74,5.10 321.76,8.07 318.47,9.92 C311.56,13.82 296.47,25.02 290.14,30.96 C286.33,34.53 285.36,34.97 282.49,34.43 C280.22,34.01 278.39,34.35 276.57,35.55 C274.03,37.21 273.84,37.20 271.71,35.26 C265.79,29.84 258.24,28.49 254.35,32.14 C252.86,33.54 250.30,34.46 247.00,34.77 C243.35,35.12 241.52,35.85 240.47,37.35 C237.94,40.96 239.01,47.65 242.85,52.25 C244.21,53.88 243.97,54.00 239.39,54.00 C233.30,54.00 227.00,57.76 227.00,61.39 C227.00,63.59 226.56,63.73 217.85,64.35 C212.81,64.71 205.50,65.01 201.60,65.02 C189.28,65.05 181.15,66.73 172.50,71.02 C161.01,76.72 150.47,85.35 143.03,95.16 C136.24,104.12 133.78,108.96 129.61,121.50 C123.54,139.73 122.10,142.72 118.57,144.40 C116.67,145.30 114.72,147.26 114.01,148.99 C112.52,152.57 110.48,152.80 105.00,150.00 C102.84,148.90 100.50,148.01 99.79,148.02 C99.08,148.03 96.96,150.53 95.08,153.58 C93.21,156.63 89.66,160.89 87.20,163.05 C82.97,166.78 82.76,167.20 83.29,171.13 C83.72,174.31 84.91,176.36 88.45,179.95 C93.03,184.60 93.05,184.65 91.05,186.45 C88.60,188.67 85.00,197.97 85.00,202.07 C85.00,204.06 84.41,205.23 83.25,205.57 C82.29,205.85 77.79,207.90 73.26,210.12 C66.18,213.60 63.65,215.62 55.22,224.51 C49.82,230.21 44.78,236.13 44.01,237.68 C43.23,239.23 40.95,242.75 38.93,245.50 C34.64,251.33 32.69,256.91 30.35,270.00 C27.36,286.80 28.51,317.56 32.64,331.35 C33.14,333.02 32.78,333.14 29.21,332.54 C24.02,331.66 17.30,333.46 16.52,335.95 C16.18,337.00 16.02,339.67 16.15,341.90 C16.34,345.05 15.71,346.88 13.28,350.26 C11.57,352.65 9.86,356.21 9.49,358.18 C8.89,361.42 9.14,362.00 12.16,364.28 C14.00,365.67 17.52,367.37 20.00,368.07 C26.20,369.81 26.51,370.28 24.63,374.95 C23.74,377.20 23.00,381.68 23.00,384.91 C23.00,389.89 22.66,390.99 20.74,392.25 C19.50,393.06 17.83,395.03 17.03,396.61 C16.24,398.20 15.04,400.17 14.38,401.00 C12.05,403.89 5.31,418.55 3.57,424.50 C2.61,427.80 1.45,431.62 0.99,433.00 C0.53,434.38 0.12,337.51 0.08,217.75 Z" fill="black" />
</svg>